{
.appVersion = "895";
copyright = "Copyright 2016 Google Inc. All Rights Reserved.";
customParameters = (
{
name = description;
value = "Designed by Monotype design team.";
},
{
name = license;
value = "This Font Software is licensed under the SIL Open Font License, Version 1.1. This Font Software is distributed on an \"AS IS\" BASIS, WITHOUT WARRANTIES OR CONDITIONS OF ANY KIND, either express or implied. See the SIL Open Font License for the specific language, permissions and limitations governing your use of this Font Software.";
},
{
name = licenseURL;
value = "http://scripts.sil.org/OFL";
},
{
name = vendorID;
value = GOOG;
},
{
name = trademark;
value = "Noto is a trademark of Google Inc.";
},
{
name = fsType;
value = ();
},
{
name = panose;
value = (
2,
11,
5,
2,
4,
5,
4,
2,
2,
4
);
},
{
name = codePageRanges;
value = (
1252
);
}
);
date = "2016-11-10 17:41:29 +0000";
designer = "Monotype Design Team";
designerURL = "http://www.monotype.com/studio";
familyName = "Noto Sans Mandaic";
features = (
{
code = "script mand;\012lookupflag RightToLeft IgnoreMarks;\012sub uni0841 by g11;\012sub uni0842 by g16;\012sub uni0843 by g21;\012sub uni0844 by g26;\012sub uni0845 by g31;\012sub uni0848 by g42;\012sub uni084A by g50;\012sub uni084B by g55;\012sub uni084C by g60;\012sub uni084D by g65;\012sub uni084E by g70;\012sub uni084F by g75;\012sub uni0850 by g80;\012sub uni0851 by g85;\012sub uni0852 by g90;\012sub uni0853 by g95;\012sub uni0855 by g103;\012";
name = init;
},
{

glyphs = (
{
glyphname = afii57440;
lastChange = "2016-11-10 17:41:15 +0000";
layers = (
{
layerId = "5B8CD0D6-7305-4246-9307-178461FF2756";
paths = (
{
closed = 1;
nodes = (
"767 0 LINE",
"767 155 LINE",
"1 155 LINE SMOOTH",
"-44 155 OFFCURVE",
"-80 126 OFFCURVE",
"-80 78 CURVE SMOOTH",
"-80 29 OFFCURVE",
"-44 0 OFFCURVE",
"1 0 CURVE SMOOTH"
);
}
);
width = 767;
}
);
note = afii57440;
unicode = 0640;
},
{
glyphname = uni0840;
lastChange = "2016-11-10 17:41:15 +0000";
layers = (
{
layerId = "5B8CD0D6-7305-4246-9307-178461FF2756";
paths = (
{
closed = 1;
nodes = (
"784 -94 OFFCURVE",
"954 55 OFFCURVE",
"954 272 CURVE SMOOTH",
"954 347 OFFCURVE",
"938 414 OFFCURVE",
"905 475 CURVE SMOOTH",
"840 596 OFFCURVE",
"714 672 OFFCURVE",
"565 672 CURVE SMOOTH",
"486 672 OFFCURVE",
"415 653 OFFCURVE",
"350 615 CURVE SMOOTH",
"220 539 OFFCURVE",
"140 397 OFFCURVE",
"140 242 CURVE SMOOTH",
"140 34 OFFCURVE",
"293 -94 OFFCURVE",
"548 -94 CURVE SMOOTH"
);
},
{
closed = 1;
nodes = (
"373 61 OFFCURVE",
"286 128 OFFCURVE",
"286 262 CURVE SMOOTH",
"286 406 OFFCURVE",
"417 522 OFFCURVE",
"565 522 CURVE SMOOTH",
"708 522 OFFCURVE",
"808 421 OFFCURVE",
"808 272 CURVE SMOOTH",
"808 137 OFFCURVE",
"713 61 OFFCURVE",
"548 61 CURVE SMOOTH"
);
}
);
width = 1094;
}
);
note = uni0840;
unicode = 0840;
},
{
glyphname = uni0841;
lastChange = "2016-11-10 17:41:15 +0000";
layers = (
{
layerId = "5B8CD0D6-7305-4246-9307-178461FF2756";
paths = (
{
closed = 1;
nodes = (
"1731 0 LINE",
"1731 155 LINE",
"1097 155 LINE",
"1097 486 LINE",
"1175 486 LINE SMOOTH",
"1490 486 OFFCURVE",
"1625 587 OFFCURVE",
"1625 838 CURVE SMOOTH",
"1625 908 OFFCURVE",
"1618 970 OFFCURVE",
"1605 1023 CURVE",
"1463 986 LINE",
"1472 921 OFFCURVE",
"1477 866 OFFCURVE",
"1477 821 CURVE SMOOTH",
"1477 717 OFFCURVE",
"1441 673 OFFCURVE",
"1349 652 CURVE SMOOTH",
"1302 641 OFFCURVE",
"1229 636 OFFCURVE",
"1129 636 CURVE SMOOTH",
"597 636 LINE",
"644 674 OFFCURVE",
"696 727 OFFCURVE",
"754 796 CURVE SMOOTH",
"880 946 LINE",
"767 1019 LINE",
"589 810 OFFCURVE",
"488 692 OFFCURVE",
"463 665 CURVE SMOOTH",
"438 638 OFFCURVE",
"420 621 OFFCURVE",
"409 613 CURVE",
"409 486 LINE",
"947 486 LINE",
"947 155 LINE",
"100 155 LINE",
"100 0 LINE"
);
}
);
width = 1831;
}
);
note = uni0841;
unicode = 0841;
},
{
glyphname = uni0842;
lastChange = "2016-11-10 17:41:15 +0000";
layers = (
{
layerId = "5B8CD0D6-7305-4246-9307-178461FF2756";
paths = (
{
closed = 1;
nodes = (
"876 0 LINE",
"876 153 LINE",
"660 386 OFFCURVE",
"446 686 OFFCURVE",
"383 866 CURVE",
"482 861 LINE",
"706 861 OFFCURVE",
"830 959 OFFCURVE",
"830 1135 CURVE SMOOTH",
"830 1194 OFFCURVE",
"817 1249 OFFCURVE",
"792 1299 CURVE SMOOTH",
"741 1399 OFFCURVE",
"642 1462 OFFCURVE",
"525 1462 CURVE SMOOTH",
"459 1462 OFFCURVE",
"402 1444 OFFCURVE",
"353 1408 CURVE SMOOTH",
"256 1336 OFFCURVE",
"198 1204 OFFCURVE",
"198 1064 CURVE SMOOTH",
"198 845 OFFCURVE",
"321 585 OFFCURVE",
"568 282 CURVE SMOOTH",
"671 155 LINE",
"100 155 LINE",
"100 0 LINE"
);
},
{
closed = 1;
nodes = (
"417 998 OFFCURVE",
"380 1002 OFFCURVE",
"356 1009 CURVE",
"352 1026 OFFCURVE",
"350 1048 OFFCURVE",
"350 1075 CURVE SMOOTH",
"350 1219 OFFCURVE",
"422 1317 OFFCURVE",
"525 1317 CURVE SMOOTH",
"618 1317 OFFCURVE",
"683 1245 OFFCURVE",
"683 1140 CURVE SMOOTH",
"683 1049 OFFCURVE",
"608 998 OFFCURVE",
"468 998 CURVE SMOOTH"
);
}
);
width = 976;
}
);
note = uni0842;
unicode = 0842;
},
{
glyphname = uni0843;
lastChange = "2016-11-10 17:41:15 +0000";
layers = (
{
layerId = "5B8CD0D6-7305-4246-9307-178461FF2756";
paths = (
{
closed = 1;
nodes = (
"1185 0 LINE",
"1185 1009 LINE",
"1035 1009 LINE",
"1035 636 LINE",
"599 636 LINE",
"599 1009 LINE",
"449 1009 LINE",
"449 486 LINE",
"1035 486 LINE",
"1035 155 LINE",
"100 155 LINE",
"100 0 LINE"
);
}
);
width = 1355;
}
);
note = uni0843;
unicode = 0843;
},
{
glyphname = uni0844;
lastChange = "2016-11-10 17:41:15 +0000";
layers = (
{
layerId = "5B8CD0D6-7305-4246-9307-178461FF2756";
paths = (
{
closed = 1;
nodes = (
"381 0 LINE SMOOTH",
"544 0 OFFCURVE",
"660 49 OFFCURVE",
"719 122 CURVE",
"766 41 OFFCURVE",
"845 0 OFFCURVE",
"954 0 CURVE SMOOTH",
"1054 0 OFFCURVE",
"1132 41 OFFCURVE",
"1188 122 CURVE",
"1229 41 OFFCURVE",
"1301 0 OFFCURVE",
"1406 0 CURVE SMOOTH",
"1595 0 OFFCURVE",
"1715 141 OFFCURVE",
"1715 349 CURVE SMOOTH",
"1715 394 OFFCURVE",
"1710 433 OFFCURVE",
"1701 468 CURVE",
"1566 440 LINE",
"1569 420 OFFCURVE",
"1570 400 OFFCURVE",
"1570 379 CURVE SMOOTH",
"1570 230 OFFCURVE",
"1511 155 OFFCURVE",
"1394 155 CURVE SMOOTH",
"1325 155 OFFCURVE",
"1270 199 OFFCURVE",
"1262 268 CURVE",
"1267 300 OFFCURVE",
"1270 329 OFFCURVE",
"1270 356 CURVE SMOOTH",
"1270 384 LINE",
"1268 412 LINE",
"1129 396 LINE",
"1129 235 OFFCURVE",
"1068 155 OFFCURVE",
"945 155 CURVE SMOOTH",
"870 155 OFFCURVE",
"813 201 OFFCURVE",
"801 276 CURVE",
"805 302 OFFCURVE",
"807 329 OFFCURVE",
"807 356 CURVE SMOOTH",
"807 379 LINE",
"805 402 LINE",
"667 386 LINE",
"660 219 OFFCURVE",
"578 155 OFFCURVE",
"399 155 CURVE SMOOTH",
"100 155 LINE",
"100 0 LINE"
);
}
);
width = 1845;
}
);
note = uni0844;
unicode = 0844;
},
{
glyphname = uni0845;
lastChange = "2016-11-10 17:41:15 +0000";
layers = (
{
layerId = "5B8CD0D6-7305-4246-9307-178461FF2756";
paths = (
{
closed = 1;
nodes = (
"351 0 LINE SMOOTH",
"441 0 OFFCURVE",
"508 9 OFFCURVE",
"553 27 CURVE SMOOTH",
"641 63 OFFCURVE",
"683 132 OFFCURVE",
"683 245 CURVE SMOOTH",
"683 378 OFFCURVE",
"628 551 OFFCURVE",
"540 690 CURVE",
"415 600 LINE",
"487 475 OFFCURVE",
"533 331 OFFCURVE",
"533 256 CURVE SMOOTH",
"533 183 OFFCURVE",
"505 155 OFFCURVE",
"381 155 CURVE SMOOTH",
"100 155 LINE",
"100 0 LINE"
);
}
);
width = 843;
}
);
note = uni0845;
unicode = 0845;
},
{
glyphname = uni0846;
lastChange = "2016-11-10 17:41:15 +0000";
layers = (
{
layerId = "5B8CD0D6-7305-4246-9307-178461FF2756";
paths = (
{
closed = 1;
nodes = (
"330 -326 LINE",
"330 1422 LINE",
"180 1422 LINE",
"180 -326 LINE"
);
}
);
width = 510;
}
);
note = uni0846;
unicode = 0846;
},
{
glyphname = uni0847;
lastChange = "2016-11-10 17:41:15 +0000";
layers = (
{
layerId = "5B8CD0D6-7305-4246-9307-178461FF2756";
paths = (
{
closed = 1;
nodes = (
"717 -6 LINE",
"1098 0 LINE SMOOTH",
"1349 4 OFFCURVE",
"1457 69 OFFCURVE",
"1457 212 CURVE SMOOTH",
"1457 500 OFFCURVE",
"1282 690 OFFCURVE",
"1026 690 CURVE SMOOTH",
"925 690 OFFCURVE",
"798 664 OFFCURVE",
"644 612 CURVE SMOOTH",
"336 507 OFFCURVE",
"120 364 OFFCURVE",
"120 180 CURVE SMOOTH",
"120 61 OFFCURVE",
"199 -11 OFFCURVE",
"328 -11 CURVE SMOOTH"
);
},
{
closed = 1;
nodes = (
"301 145 OFFCURVE",
"272 167 OFFCURVE",
"272 210 CURVE SMOOTH",
"272 249 OFFCURVE",
"314 293 OFFCURVE",
"398 341 CURVE SMOOTH",
"565 437 OFFCURVE",
"877 540 OFFCURVE",
"1004 540 CURVE SMOOTH",
"1062 540 OFFCURVE",
"1113 528 OFFCURVE",
"1157 503 CURVE SMOOTH",
"1245 453 OFFCURVE",
"1297 331 OFFCURVE",
"1297 248 CURVE SMOOTH",
"1297 186 OFFCURVE",
"1245 155 OFFCURVE",
"1141 155 CURVE SMOOTH",
"1002 153 LINE",
"359 145 LINE SMOOTH"
);
}
);
width = 1597;
}
);
note = uni0847;
unicode = 0847;
},
{
glyphname = uni0848;
lastChange = "2016-11-10 17:41:15 +0000";
layers = (
{
layerId = "5B8CD0D6-7305-4246-9307-178461FF2756";
paths = (
{
closed = 1;
nodes = (
"1230 0 LINE",
"1230 155 LINE",
"993 155 LINE",
"1224 780 LINE SMOOTH",
"1305 1000 OFFCURVE",
"1334 1119 OFFCURVE",
"1334 1207 CURVE SMOOTH",
"1334 1378 OFFCURVE",
"1238 1482 OFFCURVE",
"1083 1482 CURVE SMOOTH",
"943 1482 OFFCURVE",
"826 1387 OFFCURVE",
"757 1206 CURVE SMOOTH",
"346 155 LINE",
"80 155 LINE",
"80 0 LINE"
);
},
{
closed = 1;
nodes = (
"899 1150 LINE SMOOTH",
"946 1273 OFFCURVE",
"1005 1334 OFFCURVE",
"1074 1334 CURVE SMOOTH",
"1142 1334 OFFCURVE",
"1183 1286 OFFCURVE",
"1183 1201 CURVE SMOOTH",
"1183 1168 OFFCURVE",
"1176 1123 OFFCURVE",
"1161 1066 CURVE SMOOTH",
"1146 1009 OFFCURVE",
"1118 927 OFFCURVE",
"1077 818 CURVE SMOOTH",
"824 155 LINE",
"509 155 LINE"
);
}
);
width = 1384;
}
);
note = uni0848;
unicode = 0848;
},
{
glyphname = uni0849;
lastChange = "2016-11-10 17:41:15 +0000";
layers = (
{
layerId = "5B8CD0D6-7305-4246-9307-178461FF2756";
paths = (
{
closed = 1;
nodes = (
"806 0 LINE",
"806 155 LINE",
"266 155 LINE",
"294 255 OFFCURVE",
"494 497 OFFCURVE",
"615 604 CURVE",
"520 695 LINE",
"455 646 OFFCURVE",
"389 582 OFFCURVE",
"322 504 CURVE SMOOTH",
"187 347 OFFCURVE",
"120 215 OFFCURVE",
"120 128 CURVE SMOOTH",
"120 35 OFFCURVE",
"170 0 OFFCURVE",
"255 0 CURVE SMOOTH"
);
}
);
width = 906;
}
);
note = uni0849;
unicode = 0849;
},
{
glyphname = uni084A;
lastChange = "2016-11-10 17:41:15 +0000";
layers = (
{
layerId = "5B8CD0D6-7305-4246-9307-178461FF2756";
paths = (
{
closed = 1;
nodes = (
"748 -740 LINE",
"969 -511 OFFCURVE",
"1153 -238 OFFCURVE",
"1241 -6 CURVE SMOOTH",
"1250 17 OFFCURVE",
"1254 40 OFFCURVE",
"1254 61 CURVE SMOOTH",
"1254 122 OFFCURVE",
"1211 155 OFFCURVE",
"1151 155 CURVE SMOOTH",
"801 155 LINE",
"810 246 OFFCURVE",
"973 466 OFFCURVE",
"1140 597 CURVE",
"1043 694 LINE",
"867 571 OFFCURVE",
"661 293 OFFCURVE",
"661 141 CURVE SMOOTH",
"661 52 OFFCURVE",
"714 0 OFFCURVE",
"814 0 CURVE SMOOTH",
"1088 0 LINE",
"1012 -172 OFFCURVE",
"826 -455 OFFCURVE",
"715 -575 CURVE",
"519 -215 OFFCURVE",
"382 121 OFFCURVE",
"281 505 CURVE",
"140 467 LINE",
"165 349 OFFCURVE",
"199 228 OFFCURVE",
"242 105 CURVE SMOOTH",
"327 -142 OFFCURVE",
"462 -445 OFFCURVE",
"641 -740 CURVE"
);
}
);
width = 1374;
}
);
note = uni084A;
unicode = 084A;
},
{
glyphname = uni084B;
lastChange = "2016-11-10 17:41:15 +0000";
layers = (
{
layerId = "5B8CD0D6-7305-4246-9307-178461FF2756";
paths = (
{
closed = 1;
nodes = (
"742 0 LINE",
"742 1422 LINE",
"592 1422 LINE",
"592 155 LINE",
"100 155 LINE",
"100 0 LINE"
);
}
);
width = 942;
}
);
note = uni084B;
unicode = 084B;
},
{
glyphname = uni084C;
lastChange = "2016-11-10 17:41:15 +0000";
layers = (
{
layerId = "5B8CD0D6-7305-4246-9307-178461FF2756";
paths = (
{
closed = 1;
nodes = (
"1859 -326 LINE",
"1859 1009 LINE",
"1709 1009 LINE",
"1709 636 LINE",
"639 636 LINE",
"703 669 OFFCURVE",
"816 744 OFFCURVE",
"861 781 CURVE SMOOTH",
"1034 926 LINE",
"937 1019 LINE",
"674 804 OFFCURVE",
"528 686 OFFCURVE",
"500 664 CURVE SMOOTH",
"471 642 OFFCURVE",
"450 627 OFFCURVE",
"437 618 CURVE SMOOTH",
"424 609 OFFCURVE",
"412 602 OFFCURVE",
"403 597 CURVE",
"403 486 LINE",
"1020 486 LINE SMOOTH",
"1131 486 OFFCURVE",
"1195 424 OFFCURVE",
"1195 321 CURVE SMOOTH",
"1195 213 OFFCURVE",
"1128 155 OFFCURVE",
"1012 155 CURVE SMOOTH",
"100 155 LINE",
"100 0 LINE",
"1012 0 LINE SMOOTH",
"1220 0 OFFCURVE",
"1346 116 OFFCURVE",
"1346 321 CURVE SMOOTH",
"1346 385 OFFCURVE",
"1328 440 OFFCURVE",
"1292 486 CURVE",
"1709 486 LINE",
"1709 -326 LINE"
);
}
);
width = 2029;
}
);
note = uni084C;
unicode = 084C;
},
{
glyphname = uni084D;
lastChange = "2016-11-10 17:41:15 +0000";
layers = (
{
layerId = "5B8CD0D6-7305-4246-9307-178461FF2756";
paths = (
{
closed = 1;
nodes = (
"621 -740 LINE",
"838 -448 OFFCURVE",
"1062 61 OFFCURVE",
"1062 353 CURVE SMOOTH",
"1062 422 OFFCURVE",
"1058 472 OFFCURVE",
"1051 505 CURVE",
"909 485 LINE",
"914 446 OFFCURVE",
"916 392 OFFCURVE",
"916 322 CURVE",
"903 110 OFFCURVE",
"751 -272 OFFCURVE",
"590 -545 CURVE",
"541 -431 OFFCURVE",
"500 -325 OFFCURVE",
"466 -227 CURVE SMOOTH",
"397 -31 OFFCURVE",
"356 125 OFFCURVE",
"283 505 CURVE",
"140 479 LINE",
"191 94 OFFCURVE",
"330 -364 OFFCURVE",
"515 -740 CURVE"
);
}
);
width = 1202;
}
);
note = uni084D;
unicode = 084D;
},
{
glyphname = uni084E;
lastChange = "2016-11-10 17:41:15 +0000";
layers = (
{
layerId = "5B8CD0D6-7305-4246-9307-178461FF2756";
paths = (
{
closed = 1;
nodes = (
"351 0 LINE SMOOTH",
"516 0 OFFCURVE",
"634 49 OFFCURVE",
"691 125 CURVE",
"770 36 OFFCURVE",
"873 0 OFFCURVE",
"1050 0 CURVE SMOOTH",
"1534 0 LINE SMOOTH",
"1783 0 OFFCURVE",
"1893 73 OFFCURVE",
"1893 250 CURVE SMOOTH",
"1893 329 OFFCURVE",
"1877 401 OFFCURVE",
"1844 466 CURVE SMOOTH",
"1778 594 OFFCURVE",
"1652 670 OFFCURVE",
"1489 670 CURVE SMOOTH",
"1253 670 OFFCURVE",
"1062 517 OFFCURVE",
"897 174 CURVE",
"826 195 OFFCURVE",
"784 230 OFFCURVE",
"771 277 CURVE",
"775 303 OFFCURVE",
"777 329 OFFCURVE",
"777 356 CURVE SMOOTH",
"777 379 LINE",
"775 402 LINE",
"637 386 LINE",
"630 219 OFFCURVE",
"548 155 OFFCURVE",
"369 155 CURVE SMOOTH",
"100 155 LINE",
"100 0 LINE"
);
},
{
closed = 1;
nodes = (
"1157 378 OFFCURVE",
"1327 519 OFFCURVE",
"1492 519 CURVE SMOOTH",
"1643 519 OFFCURVE",
"1743 416 OFFCURVE",
"1743 253 CURVE SMOOTH",
"1743 190 OFFCURVE",
"1687 155 OFFCURVE",
"1591 155 CURVE SMOOTH",
"1054 155 LINE"
);
}
);
width = 2033;
}
);
note = uni084E;
unicode = 084E;
},
{
glyphname = uni084F;
lastChange = "2016-11-10 17:41:15 +0000";
layers = (
{
layerId = "5B8CD0D6-7305-4246-9307-178461FF2756";
paths = (
{
closed = 1;
nodes = (
"1254 0 LINE SMOOTH",
"1462 0 OFFCURVE",
"1588 116 OFFCURVE",
"1588 321 CURVE SMOOTH",
"1588 524 OFFCURVE",
"1466 636 OFFCURVE",
"1254 636 CURVE SMOOTH",
"668 636 LINE",
"732 668 OFFCURVE",
"799 707 OFFCURVE",
"869 754 CURVE",
"1098 920 LINE",
"1006 1020 LINE",
"564 700 LINE SMOOTH",
"543 684 OFFCURVE",
"442 617 OFFCURVE",
"402 597 CURVE",
"402 486 LINE",
"1254 486 LINE SMOOTH",
"1371 486 OFFCURVE",
"1438 426 OFFCURVE",
"1438 321 CURVE SMOOTH",
"1438 218 OFFCURVE",
"1373 155 OFFCURVE",
"1254 155 CURVE SMOOTH",
"100 155 LINE",
"100 0 LINE"
);
}
);
width = 1748;
}
);
note = uni084F;
unicode = 084F;
},
{
glyphname = uni0850;
lastChange = "2016-11-10 17:41:15 +0000";
layers = (
{
layerId = "5B8CD0D6-7305-4246-9307-178461FF2756";
paths = (
{
closed = 1;
nodes = (
"774 -780 LINE",
"885 -648 OFFCURVE",
"963 -550 OFFCURVE",
"1008 -487 CURVE SMOOTH",
"1097 -361 OFFCURVE",
"1178 -222 OFFCURVE",
"1244 -62 CURVE SMOOTH",
"1310 97 OFFCURVE",
"1334 214 OFFCURVE",
"1334 342 CURVE SMOOTH",
"1334 403 OFFCURVE",
"1320 459 OFFCURVE",
"1293 511 CURVE SMOOTH",
"1237 615 OFFCURVE",
"1131 676 OFFCURVE",
"999 676 CURVE SMOOTH",
"936 676 OFFCURVE",
"878 659 OFFCURVE",
"825 625 CURVE SMOOTH",
"719 557 OFFCURVE",
"647 419 OFFCURVE",
"647 292 CURVE SMOOTH",
"647 104 OFFCURVE",
"760 0 OFFCURVE",
"975 0 CURVE SMOOTH",
"1111 0 LINE",
"1043 -185 OFFCURVE",
"918 -387 OFFCURVE",
"736 -606 CURVE",
"666 -475 OFFCURVE",
"605 -353 OFFCURVE",
"554 -242 CURVE SMOOTH",
"451 -19 OFFCURVE",
"389 141 OFFCURVE",
"280 505 CURVE",
"140 465 LINE",
"166 352 OFFCURVE",
"208 217 OFFCURVE",
"266 58 CURVE SMOOTH",
"382 -260 OFFCURVE",
"488 -465 OFFCURVE",
"669 -780 CURVE"
);
},
{
closed = 1;
nodes = (
"852 155 OFFCURVE",
"789 208 OFFCURVE",
"789 315 CURVE SMOOTH",
"789 348 OFFCURVE",
"798 381 OFFCURVE",
"817 416 CURVE SMOOTH",
"854 484 OFFCURVE",
"921 529 OFFCURVE",
"996 529 CURVE SMOOTH",
"1109 529 OFFCURVE",
"1187 445 OFFCURVE",
"1187 321 CURVE SMOOTH",
"1187 259 OFFCURVE",
"1179 204 OFFCURVE",
"1164 155 CURVE",
"979 155 LINE SMOOTH"
);
}
);
width = 1474;
}
);
note = uni0850;
unicode = 0850;
},
{
glyphname = uni0851;
lastChange = "2016-11-10 17:41:15 +0000";
layers = (
{
layerId = "5B8CD0D6-7305-4246-9307-178461FF2756";
paths = (
{
closed = 1;
nodes = (
"621 -740 LINE",
"674 -671 OFFCURVE",
"727 -590 OFFCURVE",
"778 -496 CURVE SMOOTH",
"881 -308 OFFCURVE",
"980 -53 OFFCURVE",
"1012 82 CURVE",
"1053 27 OFFCURVE",
"1114 0 OFFCURVE",
"1194 0 CURVE SMOOTH",
"1294 0 OFFCURVE",
"1372 41 OFFCURVE",
"1428 122 CURVE",
"1472 41 OFFCURVE",
"1545 0 OFFCURVE",
"1646 0 CURVE SMOOTH",
"1835 0 OFFCURVE",
"1955 141 OFFCURVE",
"1955 349 CURVE SMOOTH",
"1955 394 OFFCURVE",
"1950 433 OFFCURVE",
"1941 468 CURVE",
"1806 438 LINE",
"1811 356 LINE",
"1811 221 OFFCURVE",
"1749 155 OFFCURVE",
"1634 155 CURVE SMOOTH",
"1567 155 OFFCURVE",
"1511 199 OFFCURVE",
"1500 258 CURVE",
"1507 289 OFFCURVE",
"1510 321 OFFCURVE",
"1510 356 CURVE SMOOTH",
"1510 384 LINE",
"1508 412 LINE",
"1369 396 LINE",
"1369 235 OFFCURVE",
"1308 155 OFFCURVE",
"1185 155 CURVE SMOOTH",
"1109 155 OFFCURVE",
"1054 202 OFFCURVE",
"1042 273 CURVE",
"1042 293 LINE SMOOTH",
"1042 341 OFFCURVE",
"1038 381 OFFCURVE",
"1031 414 CURVE",
"894 394 LINE",
"896 333 LINE",
"896 282 LINE",
"892 213 OFFCURVE",
"875 127 OFFCURVE",
"844 24 CURVE SMOOTH",
"782 -181 OFFCURVE",
"678 -410 OFFCURVE",
"587 -554 CURVE",
"452 -225 OFFCURVE",
"356 90 OFFCURVE",
"283 505 CURVE",
"140 479 LINE",
"192 64 OFFCURVE",
"354 -443 OFFCURVE",
"515 -740 CURVE"
);
}
);
width = 2095;
}
);
note = uni0851;
unicode = 0851;
},
{
glyphname = uni0852;
lastChange = "2016-11-10 17:41:15 +0000";
layers = (
{
layerId = "5B8CD0D6-7305-4246-9307-178461FF2756";
paths = (
{
closed = 1;
nodes = (
"1595 0 LINE",
"1595 998 LINE",
"1445 998 LINE",
"1445 636 LINE",
"616 636 LINE",
"665 675 OFFCURVE",
"710 717 OFFCURVE",
"750 762 CURVE SMOOTH",
"909 944 LINE",
"797 1019 LINE",
"510 698 LINE SMOOTH",
"466 649 OFFCURVE",
"432 616 OFFCURVE",
"409 598 CURVE",
"409 486 LINE",
"719 486 LINE SMOOTH",
"835 486 OFFCURVE",
"903 426 OFFCURVE",
"903 321 CURVE SMOOTH",
"903 214 OFFCURVE",
"834 155 OFFCURVE",
"709 155 CURVE SMOOTH",
"100 155 LINE",
"100 0 LINE"
);
},
{
closed = 1;
nodes = (
"1021 189 OFFCURVE",
"1053 244 OFFCURVE",
"1053 321 CURVE SMOOTH",
"1053 397 OFFCURVE",
"1024 452 OFFCURVE",
"966 486 CURVE",
"1445 486 LINE",
"1445 155 LINE",
"956 155 LINE"
);
}
);
width = 1765;
}
);
note = uni0852;
unicode = 0852;
},
{
glyphname = uni0853;
lastChange = "2016-11-10 17:37:31 +0000";
layers = (
{
layerId = "5B8CD0D6-7305-4246-9307-178461FF2756";
paths = (
{
closed = 1;
nodes = (
"1531 0 LINE",
"1531 998 LINE",
"1381 998 LINE",
"1381 636 LINE",
"597 636 LINE",
"646 675 OFFCURVE",
"723 745 OFFCURVE",
"750 777 CURVE SMOOTH",
"895 943 LINE",
"782 1019 LINE",
"546 752 LINE SMOOTH",
"488 687 OFFCURVE",
"442 640 OFFCURVE",
"409 613 CURVE",
"409 486 LINE",
"1381 486 LINE",
"1381 155 LINE",
"100 155 LINE",
"100 0 LINE"
);
}
);
width = 1701;
}
);
note = uni0853;
unicode = 0853;
},
{
glyphname = uni0854;
lastChange = "2016-11-10 17:41:15 +0000";
layers = (
{
layerId = "5B8CD0D6-7305-4246-9307-178461FF2756";
paths = (
{
closed = 1;
nodes = (
"986 -492 LINE",
"1114 0 LINE",
"1338 0 LINE SMOOTH",
"1585 0 OFFCURVE",
"1730 124 OFFCURVE",
"1730 344 CURVE SMOOTH",
"1730 407 OFFCURVE",
"1717 466 OFFCURVE",
"1690 520 CURVE SMOOTH",
"1637 627 OFFCURVE",
"1537 690 OFFCURVE",
"1412 690 CURVE SMOOTH",
"1344 690 OFFCURVE",
"1288 675 OFFCURVE",
"1243 646 CURVE SMOOTH",
"1154 587 OFFCURVE",
"1097 493 OFFCURVE",
"1049 318 CURVE SMOOTH",
"1001 143 OFFCURVE",
"953 -109 OFFCURVE",
"925 -309 CURVE",
"906 -309 LINE",
"891 -53 OFFCURVE",
"822 349 OFFCURVE",
"781 461 CURVE SMOOTH",
"760 517 OFFCURVE",
"735 562 OFFCURVE",
"705 596 CURVE SMOOTH",
"645 663 OFFCURVE",
"575 690 OFFCURVE",
"471 690 CURVE SMOOTH",
"409 690 OFFCURVE",
"353 673 OFFCURVE",
"302 638 CURVE SMOOTH",
"201 569 OFFCURVE",
"140 441 OFFCURVE",
"140 316 CURVE SMOOTH",
"140 120 OFFCURVE",
"278 0 OFFCURVE",
"513 0 CURVE SMOOTH",
"736 0 LINE",
"786 -255 LINE SMOOTH",
"798 -322 OFFCURVE",
"814 -401 OFFCURVE",
"835 -492 CURVE"
);
},
{
closed = 1;
nodes = (
"368 155 OFFCURVE",
"287 214 OFFCURVE",
"287 329 CURVE SMOOTH",
"287 365 OFFCURVE",
"295 399 OFFCURVE",
"311 432 CURVE SMOOTH",
"343 497 OFFCURVE",
"402 540 OFFCURVE",
"477 540 CURVE SMOOTH",
"556 540 OFFCURVE",
"603 493 OFFCURVE",
"635 422 CURVE SMOOTH",
"667 350 OFFCURVE",
"682 254 OFFCURVE",
"701 155 CURVE",
"517 155 LINE SMOOTH"
);
},
{
closed = 1;
nodes = (
"1188 281 OFFCURVE",
"1216 366 OFFCURVE",
"1238 410 CURVE SMOOTH",
"1281 497 OFFCURVE",
"1334 540 OFFCURVE",
"1415 540 CURVE SMOOTH",
"1514 540 OFFCURVE",
"1577 464 OFFCURVE",
"1577 340 CURVE SMOOTH",
"1577 221 OFFCURVE",
"1494 155 OFFCURVE",
"1345 155 CURVE SMOOTH",
"1153 155 LINE"
);
}
);
width = 1870;
}
);
note = uni0854;
unicode = 0854;
},
{
glyphname = uni0855;
lastChange = "2016-11-10 17:41:15 +0000";
layers = (
{
layerId = "5B8CD0D6-7305-4246-9307-178461FF2756";
paths = (
{
closed = 1;
nodes = (
"1144 -326 LINE",
"1144 1009 LINE",
"994 1009 LINE",
"994 697 LINE",
"931 626 OFFCURVE",
"803 583 OFFCURVE",
"655 583 CURVE",
"599 587 LINE",
"580 622 OFFCURVE",
"561 657 OFFCURVE",
"540 690 CURVE",
"416 600 LINE",
"494 464 OFFCURVE",
"533 358 OFFCURVE",
"533 282 CURVE SMOOTH",
"533 194 OFFCURVE",
"487 155 OFFCURVE",
"359 155 CURVE SMOOTH",
"100 155 LINE",
"100 0 LINE",
"354 0 LINE SMOOTH",
"569 0 OFFCURVE",
"683 92 OFFCURVE",
"683 271 CURVE SMOOTH",
"683 317 OFFCURVE",
"674 372 OFFCURVE",
"657 437 CURVE",
"672 436 LINE",
"685 436 LINE SMOOTH",
"813 436 OFFCURVE",
"907 465 OFFCURVE",
"994 529 CURVE",
"994 -326 LINE"
);
}
);
width = 1314;
}
);
note = uni0855;
unicode = 0855;
},
{
glyphname = uni0856;
lastChange = "2016-11-10 17:41:15 +0000";
layers = (
{
layerId = "5B8CD0D6-7305-4246-9307-178461FF2756";
paths = (
{
closed = 1;
nodes = (
"1463 0 LINE",
"1463 155 LINE",
"1196 155 LINE SMOOTH",
"1105 155 OFFCURVE",
"1065 166 OFFCURVE",
"1065 229 CURVE SMOOTH",
"1065 300 OFFCURVE",
"1205 468 OFFCURVE",
"1372 604 CURVE",
"1268 695 LINE",
"1064 538 OFFCURVE",
"915 349 OFFCURVE",
"915 214 CURVE SMOOTH",
"915 190 OFFCURVE",
"917 170 OFFCURVE",
"920 155 CURVE",
"287 155 LINE",
"314 247 OFFCURVE",
"505 481 OFFCURVE",
"645 604 CURVE",
"541 695 LINE",
"342 542 OFFCURVE",
"140 272 OFFCURVE",
"140 128 CURVE SMOOTH",
"140 43 OFFCURVE",
"185 0 OFFCURVE",
"275 0 CURVE SMOOTH"
);
}
);
width = 1563;
}
);
note = uni0856;
unicode = 0856;
},
{
glyphname = uni0857;
lastChange = "2016-11-10 17:41:15 +0000";
layers = (
{
layerId = "5B8CD0D6-7305-4246-9307-178461FF2756";
paths = (
{
closed = 1;
nodes = (
"1637 -780 LINE",
"1822 -607 OFFCURVE",
"2097 -237 OFFCURVE",
"2192 -6 CURVE SMOOTH",
"2201 16 OFFCURVE",
"2205 38 OFFCURVE",
"2205 61 CURVE SMOOTH",
"2205 122 OFFCURVE",
"2162 155 OFFCURVE",
"2101 155 CURVE SMOOTH",
"1761 155 LINE",
"1770 246 OFFCURVE",
"1933 466 OFFCURVE",
"2100 597 CURVE",
"2003 694 LINE",
"1827 571 OFFCURVE",
"1621 293 OFFCURVE",
"1621 141 CURVE SMOOTH",
"1621 50 OFFCURVE",
"1675 0 OFFCURVE",
"1776 0 CURVE SMOOTH",
"2038 0 LINE",
"1949 -177 OFFCURVE",
"1716 -502 OFFCURVE",
"1615 -603 CURVE",
"1456 -128 OFFCURVE",
"1348 184 OFFCURVE",
"1293 331 CURVE SMOOTH",
"1238 478 OFFCURVE",
"1189 594 OFFCURVE",
"1148 681 CURVE",
"1006 615 LINE",
"1057 506 OFFCURVE",
"1118 353 OFFCURVE",
"1187 155 CURVE",
"280 155 LINE",
"307 247 OFFCURVE",
"498 481 OFFCURVE",
"638 604 CURVE",
"534 695 LINE",
"335 542 OFFCURVE",
"133 272 OFFCURVE",
"133 128 CURVE SMOOTH",
"133 43 OFFCURVE",
"178 0 OFFCURVE",
"268 0 CURVE SMOOTH",
"1241 0 LINE",
"1324 -232 LINE SMOOTH",
"1416 -496 OFFCURVE",
"1484 -679 OFFCURVE",
"1529 -780 CURVE"
);
}
);
width = 2321;
}
);
note = uni0857;
unicode = 0857;
},
{
glyphname = uni0858;
lastChange = "2016-11-10 17:41:15 +0000";
layers = (
{
layerId = "5B8CD0D6-7305-4246-9307-178461FF2756";
paths = (
{
closed = 1;
nodes = (
"839 -668 LINE",
"580 -595 OFFCURVE",
"293 -486 OFFCURVE",
"256 -449 CURVE",
"301 -388 OFFCURVE",
"594 -162 OFFCURVE",
"793 -37 CURVE",
"793 96 LINE",
"645 121 OFFCURVE",
"365 177 OFFCURVE",
"320 196 CURVE",
"331 218 OFFCURVE",
"369 259 OFFCURVE",
"436 318 CURVE SMOOTH",
"569 437 OFFCURVE",
"743 566 OFFCURVE",
"818 614 CURVE",
"737 739 LINE",
"690 711 OFFCURVE",
"638 676 OFFCURVE",
"580 633 CURVE SMOOTH",
"464 547 OFFCURVE",
"343 438 OFFCURVE",
"276 363 CURVE SMOOTH",
"209 288 OFFCURVE",
"185 242 OFFCURVE",
"185 173 CURVE SMOOTH",
"185 41 OFFCURVE",
"317 28 OFFCURVE",
"568 -17 CURVE",
"431 -112 LINE SMOOTH",
"309 -196 OFFCURVE",
"226 -263 OFFCURVE",
"182 -314 CURVE SMOOTH",
"138 -365 OFFCURVE",
"116 -419 OFFCURVE",
"116 -477 CURVE SMOOTH",
"116 -522 OFFCURVE",
"136 -560 OFFCURVE",
"175 -591 CURVE SMOOTH",
"253 -654 OFFCURVE",
"611 -786 OFFCURVE",
"782 -826 CURVE"
);
}
);
width = 974;
}
);
note = uni0858;
unicode = 0858;
},
{
glyphname = uni085E;
lastChange = "2016-11-10 17:41:15 +0000";
layers = (
{
layerId = "5B8CD0D6-7305-4246-9307-178461FF2756";
paths = (
{
closed = 1;
nodes = (
"644 -304 OFFCURVE",
"713 -286 OFFCURVE",
"776 -250 CURVE SMOOTH",
"903 -178 OFFCURVE",
"980 -45 OFFCURVE",
"980 106 CURVE SMOOTH",
"980 347 OFFCURVE",
"810 516 OFFCURVE",
"570 516 CURVE SMOOTH",
"497 516 OFFCURVE",
"428 498 OFFCURVE",
"364 462 CURVE SMOOTH",
"236 390 OFFCURVE",
"160 255 OFFCURVE",
"160 106 CURVE SMOOTH",
"160 -135 OFFCURVE",
"330 -304 OFFCURVE",
"570 -304 CURVE SMOOTH"
);
},
{
closed = 1;
nodes = (
"503 -244 OFFCURVE",
"443 -229 OFFCURVE",
"389 -200 CURVE SMOOTH",
"281 -142 OFFCURVE",
"220 -33 OFFCURVE",
"220 106 CURVE SMOOTH",
"220 170 OFFCURVE",
"235 229 OFFCURVE",
"266 284 CURVE SMOOTH",
"327 392 OFFCURVE",
"442 456 OFFCURVE",
"570 456 CURVE SMOOTH",
"637 456 OFFCURVE",
"697 442 OFFCURVE",
"751 413 CURVE SMOOTH",
"859 355 OFFCURVE",
"920 245 OFFCURVE",
"920 106 CURVE SMOOTH",
"920 42 OFFCURVE",
"905 -17 OFFCURVE",
"874 -71 CURVE SMOOTH",
"813 -180 OFFCURVE",
"698 -244 OFFCURVE",
"570 -244 CURVE SMOOTH"
);
},
{
closed = 1;
nodes = (
"695 -124 OFFCURVE",
"800 -21 OFFCURVE",
"800 106 CURVE SMOOTH",
"800 239 OFFCURVE",
"701 336 OFFCURVE",
"570 336 CURVE SMOOTH",
"445 336 OFFCURVE",
"340 233 OFFCURVE",
"340 106 CURVE SMOOTH",
"340 -27 OFFCURVE",
"439 -124 OFFCURVE",
"570 -124 CURVE SMOOTH"
);
},
{
closed = 1;
nodes = (
"471 -64 OFFCURVE",
"400 7 OFFCURVE",
"400 106 CURVE SMOOTH",
"400 201 OFFCURVE",
"477 276 OFFCURVE",
"570 276 CURVE SMOOTH",
"669 276 OFFCURVE",
"740 205 OFFCURVE",
"740 106 CURVE SMOOTH",
"740 11 OFFCURVE",
"663 -64 OFFCURVE",
"570 -64 CURVE SMOOTH"
);
}
);
width = 1140;
}
);
note = uni085E;
unicode = 085E;
},
{
glyphname = .notdef;
lastChange = "2016-11-10 17:41:15 +0000";
layers = (
{
layerId = "5B8CD0D6-7305-4246-9307-178461FF2756";
paths = (
{
closed = 1;
nodes = (
"1034 0 LINE",
"1034 1462 LINE",
"193 1462 LINE",
"193 0 LINE"
);
},
{
closed = 1;
nodes = (
"297 1358 LINE",
"930 1358 LINE",
"930 104 LINE",
"297 104 LINE"
);
}
);
width = 1229;
}
);
note = .notdef;
},
{
glyphname = uni0859;
lastChange = "2016-11-10 17:41:15 +0000";
layers = (
{
layerId = "5B8CD0D6-7305-4246-9307-178461FF2756";
paths = (
{
closed = 1;
nodes = (
"222 -357 OFFCURVE",
"263 -324 OFFCURVE",
"263 -253 CURVE SMOOTH",
"263 -192 OFFCURVE",
"228 -150 OFFCURVE",
"171 -150 CURVE SMOOTH",
"119 -150 OFFCURVE",
"80 -181 OFFCURVE",
"80 -253 CURVE SMOOTH",
"80 -324 OFFCURVE",
"119 -357 OFFCURVE",
"171 -357 CURVE SMOOTH"
);
},
{
closed = 1;
nodes = (
"-122 -357 OFFCURVE",
"-80 -324 OFFCURVE",
"-80 -253 CURVE SMOOTH",
"-80 -181 OFFCURVE",
"-122 -150 OFFCURVE",
"-171 -150 CURVE SMOOTH",
"-222 -150 OFFCURVE",
"-263 -181 OFFCURVE",
"-263 -253 CURVE SMOOTH",
"-263 -324 OFFCURVE",
"-222 -357 OFFCURVE",
"-171 -357 CURVE SMOOTH"
);
}
);
width = 0;
}
);
note = uni0859;
unicode = 0859;
},
{
glyphname = uni085A;
lastChange = "2016-11-10 17:37:31 +0000";
layers = (
{
layerId = "5B8CD0D6-7305-4246-9307-178461FF2756";
paths = (
{
closed = 1;
nodes = (
"253 -331 LINE",
"253 -177 LINE",
"-253 -177 LINE",
"-253 -331 LINE"
);
}
);
width = 0;
}
);
note = uni085A;
unicode = 085A;
},
{
glyphname = uni085B;
lastChange = "2016-11-10 17:41:15 +0000";
layers = (
{
layerId = "5B8CD0D6-7305-4246-9307-178461FF2756";
paths = (
{
closed = 1;
nodes = (
"49 -357 OFFCURVE",
"91 -324 OFFCURVE",
"91 -253 CURVE SMOOTH",
"91 -181 OFFCURVE",
"49 -150 OFFCURVE",
"0 -150 CURVE SMOOTH",
"-51 -150 OFFCURVE",
"-92 -181 OFFCURVE",
"-92 -253 CURVE SMOOTH",
"-92 -324 OFFCURVE",
"-51 -357 OFFCURVE",
"0 -357 CURVE SMOOTH"
);
}
);
width = 0;
}
);
note = uni085B;
unicode = 085B;
},
{
glyphname = g6;
lastChange = "2016-11-10 17:41:15 +0000";
layers = (
{
layerId = "5B8CD0D6-7305-4246-9307-178461FF2756";
paths = (
{
closed = 1;
nodes = (
"784 -94 OFFCURVE",
"954 55 OFFCURVE",
"954 272 CURVE SMOOTH",
"954 347 OFFCURVE",
"938 414 OFFCURVE",
"905 475 CURVE SMOOTH",
"840 596 OFFCURVE",
"714 672 OFFCURVE",
"565 672 CURVE SMOOTH",
"486 672 OFFCURVE",
"415 653 OFFCURVE",
"350 615 CURVE SMOOTH",
"220 539 OFFCURVE",
"140 397 OFFCURVE",
"140 242 CURVE SMOOTH",
"140 34 OFFCURVE",
"293 -94 OFFCURVE",
"548 -94 CURVE SMOOTH"
);
},
{
closed = 1;
nodes = (
"373 61 OFFCURVE",
"286 128 OFFCURVE",
"286 262 CURVE SMOOTH",
"286 406 OFFCURVE",
"417 522 OFFCURVE",
"565 522 CURVE SMOOTH",
"708 522 OFFCURVE",
"808 421 OFFCURVE",
"808 272 CURVE SMOOTH",
"808 137 OFFCURVE",
"713 61 OFFCURVE",
"548 61 CURVE SMOOTH"
);
}
);
width = 1094;
}
);
note = g6;
},
{
glyphname = g7;
lastChange = "2016-11-10 17:41:15 +0000";
layers = (
{
layerId = "5B8CD0D6-7305-4246-9307-178461FF2756";
paths = (
{
closed = 1;
nodes = (
"1117 0 LINE",
"1117 155 LINE",
"966 155 LINE",
"960 498 OFFCURVE",
"837 670 OFFCURVE",
"597 670 CURVE SMOOTH",
"513 670 OFFCURVE",
"435 648 OFFCURVE",
"363 604 CURVE SMOOTH",
"218 515 OFFCURVE",
"130 355 OFFCURVE",
"130 191 CURVE SMOOTH",
"130 74 OFFCURVE",
"206 0 OFFCURVE",
"335 0 CURVE SMOOTH"
);
},
{
closed = 1;
nodes = (
"303 155 OFFCURVE",
"279 184 OFFCURVE",
"279 223 CURVE SMOOTH",
"279 267 OFFCURVE",
"293 313 OFFCURVE",
"322 361 CURVE SMOOTH",
"379 456 OFFCURVE",
"479 520 OFFCURVE",
"583 520 CURVE SMOOTH",
"638 520 OFFCURVE",
"680 508 OFFCURVE",
"711 485 CURVE SMOOTH",
"772 438 OFFCURVE",
"804 334 OFFCURVE",
"809 155 CURVE",
"354 155 LINE SMOOTH"
);
}
);
width = 1117;
}
);
note = g7;
},
{
glyphname = g9;
lastChange = "2016-11-10 17:41:15 +0000";
layers = (
{
layerId = "5B8CD0D6-7305-4246-9307-178461FF2756";
paths = (
{
closed = 1;
nodes = (
"1731 0 LINE",
"1731 155 LINE",
"1097 155 LINE",
"1097 486 LINE",
"1175 486 LINE SMOOTH",
"1490 486 OFFCURVE",
"1625 587 OFFCURVE",
"1625 838 CURVE SMOOTH",
"1625 908 OFFCURVE",
"1618 970 OFFCURVE",
"1605 1023 CURVE",
"1463 986 LINE",
"1472 921 OFFCURVE",
"1477 866 OFFCURVE",
"1477 821 CURVE SMOOTH",
"1477 717 OFFCURVE",
"1441 673 OFFCURVE",
"1349 652 CURVE SMOOTH",
"1302 641 OFFCURVE",
"1229 636 OFFCURVE",
"1129 636 CURVE SMOOTH",
"597 636 LINE",
"644 674 OFFCURVE",
"696 727 OFFCURVE",
"754 796 CURVE SMOOTH",
"880 946 LINE",
"767 1019 LINE",
"589 810 OFFCURVE",
"488 692 OFFCURVE",
"463 665 CURVE SMOOTH",
"438 638 OFFCURVE",
"420 621 OFFCURVE",
"409 613 CURVE",
"409 486 LINE",
"947 486 LINE",
"947 155 LINE",
"100 155 LINE",
"100 0 LINE"
);
}
);
width = 1831;
}
);
note = g9;
},
{
glyphname = g10;
lastChange = "2016-11-10 17:41:15 +0000";
layers = (
{
layerId = "5B8CD0D6-7305-4246-9307-178461FF2756";
paths = (
{
closed = 1;
nodes = (
"1781 0 LINE",
"1781 155 LINE",
"1097 155 LINE",
"1097 486 LINE",
"1175 486 LINE SMOOTH",
"1490 486 OFFCURVE",
"1625 587 OFFCURVE",
"1625 838 CURVE SMOOTH",
"1625 908 OFFCURVE",
"1618 970 OFFCURVE",
"1605 1023 CURVE",
"1464 986 LINE",
"1473 925 OFFCURVE",
"1477 870 OFFCURVE",
"1477 821 CURVE SMOOTH",
"1477 717 OFFCURVE",
"1441 673 OFFCURVE",
"1349 652 CURVE SMOOTH",
"1302 641 OFFCURVE",
"1229 636 OFFCURVE",
"1129 636 CURVE SMOOTH",
"598 636 LINE",
"621 655 OFFCURVE",
"646 678 OFFCURVE",
"672 705 CURVE SMOOTH",
"697 731 OFFCURVE",
"767 811 OFFCURVE",
"880 946 CURVE",
"768 1019 LINE",
"551 765 LINE SMOOTH",
"483 684 OFFCURVE",
"436 634 OFFCURVE",
"409 613 CURVE",
"409 486 LINE",
"947 486 LINE",
"947 155 LINE",
"100 155 LINE",
"100 0 LINE"
);
}
);
width = 1781;
}
);
note = g10;
},
{
glyphname = g11;
lastChange = "2016-11-10 17:41:15 +0000";
layers = (
{
layerId = "5B8CD0D6-7305-4246-9307-178461FF2756";
paths = (
{
closed = 1;
nodes = (
"1488 0 LINE",
"1488 155 LINE",
"853 155 LINE",
"853 486 LINE",
"931 486 LINE SMOOTH",
"1246 486 OFFCURVE",
"1381 587 OFFCURVE",
"1381 838 CURVE SMOOTH",
"1381 908 OFFCURVE",
"1374 970 OFFCURVE",
"1361 1023 CURVE",
"1220 986 LINE",
"1229 925 OFFCURVE",
"1233 870 OFFCURVE",
"1233 821 CURVE SMOOTH",
"1233 717 OFFCURVE",
"1197 673 OFFCURVE",
"1105 652 CURVE SMOOTH",
"1058 641 OFFCURVE",
"985 636 OFFCURVE",
"885 636 CURVE SMOOTH",
"354 636 LINE",
"377 655 OFFCURVE",
"402 678 OFFCURVE",
"428 705 CURVE SMOOTH",
"453 731 OFFCURVE",
"523 811 OFFCURVE",
"636 946 CURVE",
"524 1019 LINE",
"307 765 LINE SMOOTH",
"239 684 OFFCURVE",
"192 634 OFFCURVE",
"165 613 CURVE",
"165 486 LINE",
"703 486 LINE",
"703 155 LINE",
"0 155 LINE SMOOTH",
"-45 155 OFFCURVE",
"-81 126 OFFCURVE",
"-81 78 CURVE SMOOTH",
"-81 29 OFFCURVE",
"-45 0 OFFCURVE",
"0 0 CURVE SMOOTH"
);
}
);
width = 1588;
}
);
note = g11;
},
{
glyphname = g12;
lastChange = "2016-11-10 17:41:15 +0000";
layers = (
{
layerId = "5B8CD0D6-7305-4246-9307-178461FF2756";
paths = (
{
closed = 1;
nodes = (
"1537 0 LINE",
"1537 155 LINE",
"853 155 LINE",
"853 486 LINE",
"931 486 LINE SMOOTH",
"1246 486 OFFCURVE",
"1381 587 OFFCURVE",
"1381 838 CURVE SMOOTH",
"1381 908 OFFCURVE",
"1374 970 OFFCURVE",
"1361 1023 CURVE",
"1219 986 LINE",
"1228 921 OFFCURVE",
"1233 866 OFFCURVE",
"1233 821 CURVE SMOOTH",
"1233 717 OFFCURVE",
"1197 673 OFFCURVE",
"1105 652 CURVE SMOOTH",
"1058 641 OFFCURVE",
"985 636 OFFCURVE",
"885 636 CURVE SMOOTH",
"353 636 LINE",
"400 674 OFFCURVE",
"452 727 OFFCURVE",
"510 796 CURVE SMOOTH",
"636 946 LINE",
"523 1019 LINE",
"345 810 OFFCURVE",
"244 692 OFFCURVE",
"219 665 CURVE SMOOTH",
"194 638 OFFCURVE",
"176 621 OFFCURVE",
"165 613 CURVE",
"165 486 LINE",
"703 486 LINE",
"703 155 LINE",
"0 155 LINE SMOOTH",
"-45 155 OFFCURVE",
"-81 125 OFFCURVE",
"-81 77 CURVE SMOOTH",
"-81 28 OFFCURVE",
"-45 0 OFFCURVE",
"0 0 CURVE SMOOTH"
);
}
);
width = 1537;
}
);
note = g12;
},
{
glyphname = g14;
lastChange = "2016-11-10 17:41:15 +0000";
layers = (
{
layerId = "5B8CD0D6-7305-4246-9307-178461FF2756";
paths = (
{
closed = 1;
nodes = (
"876 0 LINE",
"876 153 LINE",
"660 386 OFFCURVE",
"446 686 OFFCURVE",
"383 866 CURVE",
"482 861 LINE",
"706 861 OFFCURVE",
"830 959 OFFCURVE",
"830 1135 CURVE SMOOTH",
"830 1194 OFFCURVE",
"817 1249 OFFCURVE",
"792 1299 CURVE SMOOTH",
"741 1399 OFFCURVE",
"642 1462 OFFCURVE",
"525 1462 CURVE SMOOTH",
"459 1462 OFFCURVE",
"402 1444 OFFCURVE",
"353 1408 CURVE SMOOTH",
"256 1336 OFFCURVE",
"198 1204 OFFCURVE",
"198 1064 CURVE SMOOTH",
"198 845 OFFCURVE",
"321 585 OFFCURVE",
"568 282 CURVE SMOOTH",
"671 155 LINE",
"100 155 LINE",
"100 0 LINE"
);
},
{
closed = 1;
nodes = (
"417 998 OFFCURVE",
"380 1002 OFFCURVE",
"356 1009 CURVE",
"352 1026 OFFCURVE",
"350 1048 OFFCURVE",
"350 1075 CURVE SMOOTH",
"350 1219 OFFCURVE",
"422 1317 OFFCURVE",
"525 1317 CURVE SMOOTH",
"618 1317 OFFCURVE",
"683 1245 OFFCURVE",
"683 1140 CURVE SMOOTH",
"683 1049 OFFCURVE",
"608 998 OFFCURVE",
"468 998 CURVE SMOOTH"
);
}
);
width = 976;
}
);
note = g14;
},
{
glyphname = g15;
lastChange = "2016-11-10 17:41:15 +0000";
layers = (
{
layerId = "5B8CD0D6-7305-4246-9307-178461FF2756";
paths = (
{
closed = 1;
nodes = (
"1064 0 LINE",
"1064 155 LINE",
"942 155 LINE",
"734 380 OFFCURVE",
"514 686 OFFCURVE",
"451 866 CURVE",
"550 861 LINE",
"774 861 OFFCURVE",
"898 959 OFFCURVE",
"898 1135 CURVE SMOOTH",
"898 1194 OFFCURVE",
"885 1249 OFFCURVE",
"860 1299 CURVE SMOOTH",
"809 1399 OFFCURVE",
"710 1462 OFFCURVE",
"593 1462 CURVE SMOOTH",
"527 1462 OFFCURVE",
"470 1444 OFFCURVE",
"421 1408 CURVE SMOOTH",
"324 1336 OFFCURVE",
"266 1204 OFFCURVE",
"266 1064 CURVE SMOOTH",
"266 845 OFFCURVE",
"389 585 OFFCURVE",
"636 282 CURVE SMOOTH",
"739 155 LINE",
"100 155 LINE",
"100 0 LINE"
);
},
{
closed = 1;
nodes = (
"485 998 OFFCURVE",
"448 1002 OFFCURVE",
"424 1009 CURVE",
"420 1026 OFFCURVE",
"418 1048 OFFCURVE",
"418 1075 CURVE SMOOTH",
"418 1219 OFFCURVE",
"490 1317 OFFCURVE",
"593 1317 CURVE SMOOTH",
"686 1317 OFFCURVE",
"751 1245 OFFCURVE",
"751 1140 CURVE SMOOTH",
"751 1049 OFFCURVE",
"676 998 OFFCURVE",
"536 998 CURVE SMOOTH"
);
}
);
width = 1064;
}
);
note = g15;
},
{
glyphname = g16;
lastChange = "2016-11-10 17:41:15 +0000";
layers = (
{
layerId = "5B8CD0D6-7305-4246-9307-178461FF2756";
paths = (
{
closed = 1;
nodes = (
"888 0 LINE",
"888 153 LINE",
"672 386 OFFCURVE",
"458 686 OFFCURVE",
"395 866 CURVE",
"494 861 LINE",
"718 861 OFFCURVE",
"842 959 OFFCURVE",
"842 1135 CURVE SMOOTH",
"842 1194 OFFCURVE",
"829 1249 OFFCURVE",
"804 1299 CURVE SMOOTH",
"753 1399 OFFCURVE",
"654 1462 OFFCURVE",
"537 1462 CURVE SMOOTH",
"471 1462 OFFCURVE",
"414 1444 OFFCURVE",
"365 1408 CURVE SMOOTH",
"268 1336 OFFCURVE",
"210 1204 OFFCURVE",
"210 1064 CURVE SMOOTH",
"210 845 OFFCURVE",
"333 585 OFFCURVE",
"580 282 CURVE SMOOTH",
"683 155 LINE",
"0 155 LINE SMOOTH",
"-45 155 OFFCURVE",
"-81 126 OFFCURVE",
"-81 78 CURVE SMOOTH",
"-81 29 OFFCURVE",
"-45 0 OFFCURVE",
"0 0 CURVE SMOOTH"
);
},
{
closed = 1;
nodes = (
"429 998 OFFCURVE",
"392 1002 OFFCURVE",
"368 1009 CURVE",
"364 1026 OFFCURVE",
"362 1048 OFFCURVE",
"362 1075 CURVE SMOOTH",
"362 1219 OFFCURVE",
"434 1317 OFFCURVE",
"537 1317 CURVE SMOOTH",
"630 1317 OFFCURVE",
"695 1245 OFFCURVE",
"695 1140 CURVE SMOOTH",
"695 1049 OFFCURVE",
"620 998 OFFCURVE",
"480 998 CURVE SMOOTH"
);
}
);
width = 988;
}
);
note = g16;
},
{
glyphname = g17;
lastChange = "2016-11-10 17:41:15 +0000";
layers = (
{
layerId = "5B8CD0D6-7305-4246-9307-178461FF2756";
paths = (
{
closed = 1;
nodes = (
"1008 0 LINE",
"1008 155 LINE",
"886 155 LINE",
"678 380 OFFCURVE",
"458 686 OFFCURVE",
"395 866 CURVE",
"494 861 LINE",
"718 861 OFFCURVE",
"842 959 OFFCURVE",
"842 1135 CURVE SMOOTH",
"842 1194 OFFCURVE",
"829 1249 OFFCURVE",
"804 1299 CURVE SMOOTH",
"753 1399 OFFCURVE",
"654 1462 OFFCURVE",
"537 1462 CURVE SMOOTH",
"471 1462 OFFCURVE",
"414 1444 OFFCURVE",
"365 1408 CURVE SMOOTH",
"268 1336 OFFCURVE",
"210 1204 OFFCURVE",
"210 1064 CURVE SMOOTH",
"210 845 OFFCURVE",
"333 585 OFFCURVE",
"580 282 CURVE SMOOTH",
"683 155 LINE",
"0 155 LINE SMOOTH",
"-45 155 OFFCURVE",
"-81 126 OFFCURVE",
"-81 78 CURVE SMOOTH",
"-81 29 OFFCURVE",
"-45 0 OFFCURVE",
"0 0 CURVE SMOOTH"
);
},
{
closed = 1;
nodes = (
"429 998 OFFCURVE",
"392 1002 OFFCURVE",
"368 1009 CURVE",
"364 1026 OFFCURVE",
"362 1048 OFFCURVE",
"362 1075 CURVE SMOOTH",
"362 1219 OFFCURVE",
"434 1317 OFFCURVE",
"537 1317 CURVE SMOOTH",
"630 1317 OFFCURVE",
"695 1245 OFFCURVE",
"695 1140 CURVE SMOOTH",
"695 1049 OFFCURVE",
"620 998 OFFCURVE",
"480 998 CURVE SMOOTH"
);
}
);
width = 1008;
}
);
note = g17;
},
{
glyphname = g19;
lastChange = "2016-11-10 17:41:15 +0000";
layers = (
{
layerId = "5B8CD0D6-7305-4246-9307-178461FF2756";
paths = (
{
closed = 1;
nodes = (
"1185 0 LINE",
"1185 1009 LINE",
"1035 1009 LINE",
"1035 636 LINE",
"599 636 LINE",
"599 1009 LINE",
"449 1009 LINE",
"449 486 LINE",
"1035 486 LINE",
"1035 155 LINE",
"100 155 LINE",
"100 0 LINE"
);
}
);
width = 1355;
}
);
note = g19;
},
{
glyphname = g20;
lastChange = "2016-11-10 17:37:31 +0000";
layers = (
{
layerId = "5B8CD0D6-7305-4246-9307-178461FF2756";
paths = (
{
closed = 1;
nodes = (
"1407 0 LINE",
"1407 155 LINE",
"1195 155 LINE",
"1195 1009 LINE",
"1045 1009 LINE",
"1045 636 LINE",
"610 636 LINE",
"610 1009 LINE",
"459 1009 LINE",
"459 486 LINE",
"1045 486 LINE",
"1045 155 LINE",
"100 155 LINE",
"100 0 LINE"
);
}
);
width = 1407;
}
);
note = g20;
},
{
glyphname = g21;
lastChange = "2016-11-10 17:41:15 +0000";
layers = (
{
layerId = "5B8CD0D6-7305-4246-9307-178461FF2756";
paths = (
{
closed = 1;
nodes = (
"923 0 LINE",
"923 1009 LINE",
"773 1009 LINE",
"773 636 LINE",
"338 636 LINE",
"338 1009 LINE",
"188 1009 LINE",
"188 486 LINE",
"773 486 LINE",
"773 155 LINE",
"0 155 LINE SMOOTH",
"-45 155 OFFCURVE",
"-81 126 OFFCURVE",
"-81 78 CURVE SMOOTH",
"-81 29 OFFCURVE",
"-45 0 OFFCURVE",
"0 0 CURVE SMOOTH"
);
}
);
width = 1093;
}
);
note = g21;
},
{
glyphname = g22;
lastChange = "2016-11-10 17:41:15 +0000";
layers = (
{
layerId = "5B8CD0D6-7305-4246-9307-178461FF2756";
paths = (
{
closed = 1;
nodes = (
"1136 0 LINE",
"1136 155 LINE",
"924 155 LINE",
"924 1009 LINE",
"773 1009 LINE",
"773 636 LINE",
"338 636 LINE",
"338 1009 LINE",
"188 1009 LINE",
"188 486 LINE",
"773 486 LINE",
"773 155 LINE",
"0 155 LINE SMOOTH",
"-44 155 OFFCURVE",
"-81 126 OFFCURVE",
"-81 78 CURVE SMOOTH",
"-81 29 OFFCURVE",
"-44 0 OFFCURVE",
"0 0 CURVE SMOOTH"
);
}
);
width = 1136;
}
);
note = g22;
},
{
glyphname = g24;
lastChange = "2016-11-10 17:41:15 +0000";
layers = (
{
layerId = "5B8CD0D6-7305-4246-9307-178461FF2756";
paths = (
{
closed = 1;
nodes = (
"381 0 LINE SMOOTH",
"544 0 OFFCURVE",
"660 49 OFFCURVE",
"719 122 CURVE",
"766 41 OFFCURVE",
"845 0 OFFCURVE",
"954 0 CURVE SMOOTH",
"1054 0 OFFCURVE",
"1132 41 OFFCURVE",
"1188 122 CURVE",
"1229 41 OFFCURVE",
"1301 0 OFFCURVE",
"1406 0 CURVE SMOOTH",
"1595 0 OFFCURVE",
"1715 141 OFFCURVE",
"1715 349 CURVE SMOOTH",
"1715 394 OFFCURVE",
"1710 433 OFFCURVE",
"1701 468 CURVE",
"1566 440 LINE",
"1569 420 OFFCURVE",
"1570 400 OFFCURVE",
"1570 379 CURVE SMOOTH",
"1570 230 OFFCURVE",
"1511 155 OFFCURVE",
"1394 155 CURVE SMOOTH",
"1325 155 OFFCURVE",
"1270 199 OFFCURVE",
"1262 268 CURVE",
"1267 300 OFFCURVE",
"1270 329 OFFCURVE",
"1270 356 CURVE SMOOTH",
"1270 384 LINE",
"1268 412 LINE",
"1129 396 LINE",
"1129 235 OFFCURVE",
"1068 155 OFFCURVE",
"945 155 CURVE SMOOTH",
"870 155 OFFCURVE",
"813 201 OFFCURVE",
"801 276 CURVE",
"805 302 OFFCURVE",
"807 329 OFFCURVE",
"807 356 CURVE SMOOTH",
"807 379 LINE",
"805 402 LINE",
"667 386 LINE",
"660 219 OFFCURVE",
"578 155 OFFCURVE",
"399 155 CURVE SMOOTH",
"100 155 LINE",
"100 0 LINE"
);
}
);
width = 1845;
}
);
note = g24;
},
{
glyphname = g25;
lastChange = "2016-11-10 17:41:15 +0000";
layers = (
{
layerId = "5B8CD0D6-7305-4246-9307-178461FF2756";
paths = (
{
closed = 1;
nodes = (
"381 0 LINE SMOOTH",
"544 0 OFFCURVE",
"660 48 OFFCURVE",
"719 121 CURVE",
"768 40 OFFCURVE",
"847 0 OFFCURVE",
"954 0 CURVE SMOOTH",
"1056 0 OFFCURVE",
"1135 42 OFFCURVE",
"1192 127 CURVE",
"1240 46 OFFCURVE",
"1348 0 OFFCURVE",
"1493 0 CURVE SMOOTH",
"1534 0 LINE",
"1534 155 LINE",
"1499 155 LINE SMOOTH",
"1374 155 OFFCURVE",
"1282 196 OFFCURVE",
"1263 275 CURVE",
"1268 298 OFFCURVE",
"1270 325 OFFCURVE",
"1270 356 CURVE SMOOTH",
"1270 384 LINE",
"1268 412 LINE",
"1129 396 LINE",
"1129 235 OFFCURVE",
"1068 155 OFFCURVE",
"945 155 CURVE SMOOTH",
"870 155 OFFCURVE",
"813 201 OFFCURVE",
"801 276 CURVE",
"805 302 OFFCURVE",
"807 329 OFFCURVE",
"807 356 CURVE SMOOTH",
"807 379 LINE",
"805 402 LINE",
"667 386 LINE",
"660 219 OFFCURVE",
"578 155 OFFCURVE",
"399 155 CURVE SMOOTH",
"100 155 LINE",
"100 0 LINE"
);
}
);
width = 1534;
}
);
note = g25;
},
{
glyphname = g26;
lastChange = "2016-11-10 17:41:15 +0000";
layers = (
{
layerId = "5B8CD0D6-7305-4246-9307-178461FF2756";
paths = (
{
closed = 1;
nodes = (
"60 0 LINE SMOOTH",
"211 0 OFFCURVE",
"318 40 OFFCURVE",
"383 121 CURVE",
"432 40 OFFCURVE",
"509 0 OFFCURVE",
"613 0 CURVE SMOOTH",
"713 0 OFFCURVE",
"791 41 OFFCURVE",
"847 122 CURVE",
"888 41 OFFCURVE",
"960 0 OFFCURVE",
"1065 0 CURVE SMOOTH",
"1254 0 OFFCURVE",
"1374 141 OFFCURVE",
"1374 349 CURVE SMOOTH",
"1374 394 OFFCURVE",
"1369 433 OFFCURVE",
"1360 468 CURVE",
"1225 440 LINE",
"1228 420 OFFCURVE",
"1229 399 OFFCURVE",
"1229 377 CURVE SMOOTH",
"1229 229 OFFCURVE",
"1170 155 OFFCURVE",
"1053 155 CURVE SMOOTH",
"984 155 OFFCURVE",
"929 199 OFFCURVE",
"921 268 CURVE",
"926 300 OFFCURVE",
"929 329 OFFCURVE",
"929 356 CURVE SMOOTH",
"929 384 LINE",
"927 412 LINE",
"788 396 LINE",
"788 235 OFFCURVE",
"727 155 OFFCURVE",
"604 155 CURVE SMOOTH",
"529 155 OFFCURVE",
"472 201 OFFCURVE",
"460 276 CURVE",
"464 302 OFFCURVE",
"466 329 OFFCURVE",
"466 356 CURVE SMOOTH",
"466 379 LINE",
"464 402 LINE",
"326 386 LINE",
"326 219 OFFCURVE",
"249 155 OFFCURVE",
"80 155 CURVE SMOOTH",
"0 155 LINE SMOOTH",
"-44 155 OFFCURVE",
"-81 126 OFFCURVE",
"-81 78 CURVE SMOOTH",
"-81 29 OFFCURVE",
"-44 0 OFFCURVE",
"0 0 CURVE SMOOTH"
);
}
);
width = 1504;
}
);
note = g26;
},
{
glyphname = g27;
lastChange = "2016-11-10 17:41:15 +0000";
layers = (
{
layerId = "5B8CD0D6-7305-4246-9307-178461FF2756";
paths = (
{
closed = 1;
nodes = (
"60 0 LINE SMOOTH",
"211 0 OFFCURVE",
"318 40 OFFCURVE",
"383 121 CURVE",
"432 40 OFFCURVE",
"509 0 OFFCURVE",
"613 0 CURVE SMOOTH",
"715 0 OFFCURVE",
"794 42 OFFCURVE",
"851 127 CURVE",
"899 46 OFFCURVE",
"1007 0 OFFCURVE",
"1152 0 CURVE SMOOTH",
"1193 0 LINE",
"1193 155 LINE",
"1158 155 LINE SMOOTH",
"1033 155 OFFCURVE",
"941 196 OFFCURVE",
"922 275 CURVE",
"927 298 OFFCURVE",
"929 325 OFFCURVE",
"929 356 CURVE SMOOTH",
"929 384 LINE",
"927 412 LINE",
"788 396 LINE",
"788 235 OFFCURVE",
"727 155 OFFCURVE",
"604 155 CURVE SMOOTH",
"529 155 OFFCURVE",
"472 201 OFFCURVE",
"460 276 CURVE",
"464 302 OFFCURVE",
"466 329 OFFCURVE",
"466 356 CURVE SMOOTH",
"466 379 LINE",
"464 402 LINE",
"326 386 LINE",
"326 219 OFFCURVE",
"249 155 OFFCURVE",
"80 155 CURVE SMOOTH",
"0 155 LINE SMOOTH",
"-44 155 OFFCURVE",
"-81 126 OFFCURVE",
"-81 78 CURVE SMOOTH",
"-81 29 OFFCURVE",
"-44 0 OFFCURVE",
"0 0 CURVE SMOOTH"
);
}
);
width = 1193;
}
);
note = g27;
},
{
glyphname = g29;
lastChange = "2016-11-10 17:41:15 +0000";
layers = (
{
layerId = "5B8CD0D6-7305-4246-9307-178461FF2756";
paths = (
{
closed = 1;
nodes = (
"351 0 LINE SMOOTH",
"441 0 OFFCURVE",
"508 9 OFFCURVE",
"553 27 CURVE SMOOTH",
"641 63 OFFCURVE",
"683 132 OFFCURVE",
"683 245 CURVE SMOOTH",
"683 378 OFFCURVE",
"628 551 OFFCURVE",
"540 690 CURVE",
"415 600 LINE",
"487 475 OFFCURVE",
"533 331 OFFCURVE",
"533 256 CURVE SMOOTH",
"533 183 OFFCURVE",
"505 155 OFFCURVE",
"381 155 CURVE SMOOTH",
"100 155 LINE",
"100 0 LINE"
);
}
);
width = 843;
}
);
note = g29;
},
{
glyphname = g30;
lastChange = "2016-11-10 17:37:31 +0000";
layers = (
{
layerId = "5B8CD0D6-7305-4246-9307-178461FF2756";
paths = (
{
closed = 1;
nodes = (
"949 0 LINE",
"949 155 LINE",
"735 155 LINE",
"735 636 LINE",
"585 636 LINE",
"585 155 LINE",
"100 155 LINE",
"100 0 LINE"
);
}
);
width = 949;
}
);
note = g30;
},
{
glyphname = g31;
lastChange = "2016-11-10 17:41:15 +0000";
layers = (
{
layerId = "5B8CD0D6-7305-4246-9307-178461FF2756";
paths = (
{
closed = 1;
nodes = (
"113 0 LINE SMOOTH",
"326 0 OFFCURVE",
"432 90 OFFCURVE",
"432 271 CURVE SMOOTH",
"432 394 OFFCURVE",
"382 547 OFFCURVE",
"290 690 CURVE",
"165 600 LINE",
"243 464 OFFCURVE",
"282 358 OFFCURVE",
"282 282 CURVE SMOOTH",
"282 194 OFFCURVE",
"236 155 OFFCURVE",
"108 155 CURVE SMOOTH",
"0 155 LINE SMOOTH",
"-45 155 OFFCURVE",
"-81 126 OFFCURVE",
"-81 78 CURVE SMOOTH",
"-81 29 OFFCURVE",
"-45 0 OFFCURVE",
"0 0 CURVE SMOOTH"
);
}
);
width = 592;
}
);
note = g31;
},
{
glyphname = g32;
lastChange = "2016-11-10 17:41:15 +0000";
layers = (
{
layerId = "5B8CD0D6-7305-4246-9307-178461FF2756";
paths = (
{
closed = 1;
nodes = (
"585 0 LINE",
"585 155 LINE",
"371 155 LINE",
"371 636 LINE",
"221 636 LINE",
"221 155 LINE",
"0 155 LINE SMOOTH",
"-44 155 OFFCURVE",
"-79 126 OFFCURVE",
"-79 78 CURVE SMOOTH",
"-79 29 OFFCURVE",
"-44 0 OFFCURVE",
"0 0 CURVE SMOOTH"
);
}
);
width = 585;
}
);
note = g32;
},
{
glyphname = g34;
lastChange = "2016-11-10 17:41:15 +0000";
layers = (
{
layerId = "5B8CD0D6-7305-4246-9307-178461FF2756";
paths = (
{
closed = 1;
nodes = (
"330 -326 LINE",
"330 1422 LINE",
"180 1422 LINE",
"180 -326 LINE"
);
}
);
width = 510;
}
);
note = g34;
},
{
glyphname = g35;
lastChange = "2016-11-10 17:41:15 +0000";
layers = (
{
layerId = "5B8CD0D6-7305-4246-9307-178461FF2756";
paths = (
{
closed = 1;
nodes = (
"330 -326 LINE",
"330 76 LINE",
"377 27 OFFCURVE",
"452 1 OFFCURVE",
"555 0 CURVE",
"555 155 LINE",
"474 155 OFFCURVE",
"417 163 OFFCURVE",
"382 179 CURVE SMOOTH",
"347 195 OFFCURVE",
"330 218 OFFCURVE",
"330 249 CURVE SMOOTH",
"330 1422 LINE",
"180 1422 LINE",
"180 -326 LINE"
);
}
);
width = 555;
}
);
note = g35;
},
{
glyphname = g37;
lastChange = "2016-11-10 17:41:15 +0000";
layers = (
{
layerId = "5B8CD0D6-7305-4246-9307-178461FF2756";
paths = (
{
closed = 1;
nodes = (
"717 -6 LINE",
"1098 0 LINE SMOOTH",
"1349 4 OFFCURVE",
"1457 69 OFFCURVE",
"1457 212 CURVE SMOOTH",
"1457 500 OFFCURVE",
"1282 690 OFFCURVE",
"1026 690 CURVE SMOOTH",
"925 690 OFFCURVE",
"798 664 OFFCURVE",
"644 612 CURVE SMOOTH",
"336 507 OFFCURVE",
"120 364 OFFCURVE",
"120 180 CURVE SMOOTH",
"120 61 OFFCURVE",
"199 -11 OFFCURVE",
"328 -11 CURVE SMOOTH"
);
},
{
closed = 1;
nodes = (
"301 145 OFFCURVE",
"272 167 OFFCURVE",
"272 210 CURVE SMOOTH",
"272 249 OFFCURVE",
"314 293 OFFCURVE",
"398 341 CURVE SMOOTH",
"565 437 OFFCURVE",
"877 540 OFFCURVE",
"1004 540 CURVE SMOOTH",
"1062 540 OFFCURVE",
"1113 528 OFFCURVE",
"1157 503 CURVE SMOOTH",
"1245 453 OFFCURVE",
"1297 331 OFFCURVE",
"1297 248 CURVE SMOOTH",
"1297 186 OFFCURVE",
"1245 155 OFFCURVE",
"1141 155 CURVE SMOOTH",
"1002 153 LINE",
"359 145 LINE SMOOTH"
);
}
);
width = 1597;
}
);
note = g37;
},
{
glyphname = g38;
lastChange = "2016-11-10 17:41:15 +0000";
layers = (
{
layerId = "5B8CD0D6-7305-4246-9307-178461FF2756";
paths = (
{
closed = 1;
nodes = (
"714 -6 LINE",
"1076 0 LINE SMOOTH",
"1244 3 OFFCURVE",
"1327 27 OFFCURVE",
"1367 88 CURVE",
"1414 27 OFFCURVE",
"1482 0 OFFCURVE",
"1603 0 CURVE SMOOTH",
"1611 0 LINE",
"1611 155 LINE",
"1581 155 OFFCURVE",
"1556 159 OFFCURVE",
"1537 167 CURVE SMOOTH",
"1497 183 OFFCURVE",
"1475 210 OFFCURVE",
"1450 297 CURVE SMOOTH",
"1369 576 OFFCURVE",
"1243 690 OFFCURVE",
"1026 690 CURVE SMOOTH",
"867 690 OFFCURVE",
"607 615 OFFCURVE",
"405 511 CURVE SMOOTH",
"203 406 OFFCURVE",
"120 300 OFFCURVE",
"120 180 CURVE SMOOTH",
"120 61 OFFCURVE",
"196 -11 OFFCURVE",
"324 -11 CURVE SMOOTH"
);
},
{
closed = 1;
nodes = (
"301 145 OFFCURVE",
"272 167 OFFCURVE",
"272 210 CURVE SMOOTH",
"272 251 OFFCURVE",
"315 295 OFFCURVE",
"401 343 CURVE SMOOTH",
"572 438 OFFCURVE",
"883 540 OFFCURVE",
"1004 540 CURVE SMOOTH",
"1061 540 OFFCURVE",
"1110 528 OFFCURVE",
"1153 504 CURVE SMOOTH",
"1238 456 OFFCURVE",
"1299 301 OFFCURVE",
"1299 249 CURVE SMOOTH",
"1299 189 OFFCURVE",
"1228 155 OFFCURVE",
"1101 155 CURVE SMOOTH",
"979 153 LINE",
"358 145 LINE SMOOTH"
);
}
);
width = 1611;
}
);
note = g38;
},
{
glyphname = g40;
lastChange = "2016-11-10 17:41:15 +0000";
layers = (
{
layerId = "5B8CD0D6-7305-4246-9307-178461FF2756";
paths = (
{
closed = 1;
nodes = (
"1230 0 LINE",
"1230 155 LINE",
"993 155 LINE",
"1224 780 LINE SMOOTH",
"1305 1000 OFFCURVE",
"1334 1119 OFFCURVE",
"1334 1207 CURVE SMOOTH",
"1334 1378 OFFCURVE",
"1238 1482 OFFCURVE",
"1083 1482 CURVE SMOOTH",
"943 1482 OFFCURVE",
"826 1387 OFFCURVE",
"757 1206 CURVE SMOOTH",
"346 155 LINE",
"80 155 LINE",
"80 0 LINE"
);
},
{
closed = 1;
nodes = (
"899 1150 LINE SMOOTH",
"946 1273 OFFCURVE",
"1005 1334 OFFCURVE",
"1074 1334 CURVE SMOOTH",
"1142 1334 OFFCURVE",
"1183 1286 OFFCURVE",
"1183 1201 CURVE SMOOTH",
"1183 1168 OFFCURVE",
"1176 1123 OFFCURVE",
"1161 1066 CURVE SMOOTH",
"1146 1009 OFFCURVE",
"1118 927 OFFCURVE",
"1077 818 CURVE SMOOTH",
"824 155 LINE",
"509 155 LINE"
);
}
);
width = 1384;
}
);
note = g40;
},
{
glyphname = g41;
lastChange = "2016-11-10 17:41:15 +0000";
layers = (
{
layerId = "5B8CD0D6-7305-4246-9307-178461FF2756";
paths = (
{
closed = 1;
nodes = (
"1426 0 LINE",
"1426 155 LINE",
"1013 155 LINE",
"1244 780 LINE SMOOTH",
"1325 1000 OFFCURVE",
"1354 1119 OFFCURVE",
"1354 1207 CURVE SMOOTH",
"1354 1378 OFFCURVE",
"1258 1482 OFFCURVE",
"1103 1482 CURVE SMOOTH",
"963 1482 OFFCURVE",
"846 1387 OFFCURVE",
"777 1206 CURVE SMOOTH",
"366 155 LINE",
"100 155 LINE",
"100 0 LINE"
);
},
{
closed = 1;
nodes = (
"919 1150 LINE SMOOTH",
"966 1273 OFFCURVE",
"1025 1334 OFFCURVE",
"1094 1334 CURVE SMOOTH",
"1162 1334 OFFCURVE",
"1203 1286 OFFCURVE",
"1203 1201 CURVE SMOOTH",
"1203 1168 OFFCURVE",
"1196 1123 OFFCURVE",
"1181 1066 CURVE SMOOTH",
"1166 1009 OFFCURVE",
"1138 927 OFFCURVE",
"1097 818 CURVE SMOOTH",
"844 155 LINE",
"529 155 LINE"
);
}
);
width = 1426;
}
);
note = g41;
},
{
glyphname = g42;
lastChange = "2016-11-10 17:41:15 +0000";
layers = (
{
layerId = "5B8CD0D6-7305-4246-9307-178461FF2756";
paths = (
{
closed = 1;
nodes = (
"1024 0 LINE",
"1024 155 LINE",
"788 155 LINE",
"1019 780 LINE SMOOTH",
"1092 975 OFFCURVE",
"1128 1117 OFFCURVE",
"1128 1207 CURVE SMOOTH",
"1128 1378 OFFCURVE",
"1032 1482 OFFCURVE",
"877 1482 CURVE SMOOTH",
"734 1482 OFFCURVE",
"621 1386 OFFCURVE",
"552 1206 CURVE SMOOTH",
"140 155 LINE",
"0 155 LINE SMOOTH",
"-45 155 OFFCURVE",
"-81 126 OFFCURVE",
"-81 78 CURVE SMOOTH",
"-81 29 OFFCURVE",
"-45 0 OFFCURVE",
"0 0 CURVE SMOOTH"
);
},
{
closed = 1;
nodes = (
"694 1150 LINE SMOOTH",
"743 1278 OFFCURVE",
"797 1334 OFFCURVE",
"868 1334 CURVE SMOOTH",
"940 1334 OFFCURVE",
"977 1285 OFFCURVE",
"977 1201 CURVE SMOOTH",
"977 1168 OFFCURVE",
"970 1125 OFFCURVE",
"956 1071 CURVE SMOOTH",
"941 1017 OFFCURVE",
"913 933 OFFCURVE",
"870 818 CURVE SMOOTH",
"619 155 LINE",
"304 155 LINE"
);
}
);
width = 1179;
}
);
note = g42;
},
{
glyphname = g43;
lastChange = "2016-11-10 17:41:15 +0000";
layers = (
{
layerId = "5B8CD0D6-7305-4246-9307-178461FF2756";
paths = (
{
closed = 1;
nodes = (
"1200 0 LINE",
"1200 155 LINE",
"788 155 LINE",
"1019 780 LINE SMOOTH",
"1092 975 OFFCURVE",
"1128 1117 OFFCURVE",
"1128 1207 CURVE SMOOTH",
"1128 1378 OFFCURVE",
"1032 1482 OFFCURVE",
"877 1482 CURVE SMOOTH",
"734 1482 OFFCURVE",
"621 1386 OFFCURVE",
"552 1206 CURVE SMOOTH",
"141 155 LINE",
"0 155 LINE SMOOTH",
"-45 155 OFFCURVE",
"-81 126 OFFCURVE",
"-81 78 CURVE SMOOTH",
"-81 29 OFFCURVE",
"-45 0 OFFCURVE",
"0 0 CURVE SMOOTH"
);
},
{
closed = 1;
nodes = (
"694 1150 LINE SMOOTH",
"743 1278 OFFCURVE",
"797 1334 OFFCURVE",
"868 1334 CURVE SMOOTH",
"940 1334 OFFCURVE",
"977 1285 OFFCURVE",
"977 1201 CURVE SMOOTH",
"977 1168 OFFCURVE",
"970 1125 OFFCURVE",
"956 1071 CURVE SMOOTH",
"941 1017 OFFCURVE",
"913 933 OFFCURVE",
"870 818 CURVE SMOOTH",
"619 155 LINE",
"304 155 LINE"
);
}
);
width = 1200;
}
);
note = g43;
},
{
glyphname = g45;
lastChange = "2016-11-10 17:41:15 +0000";
layers = (
{
layerId = "5B8CD0D6-7305-4246-9307-178461FF2756";
paths = (
{
closed = 1;
nodes = (
"806 0 LINE",
"806 155 LINE",
"266 155 LINE",
"294 255 OFFCURVE",
"494 497 OFFCURVE",
"615 604 CURVE",
"520 695 LINE",
"455 646 OFFCURVE",
"389 582 OFFCURVE",
"322 504 CURVE SMOOTH",
"187 347 OFFCURVE",
"120 215 OFFCURVE",
"120 128 CURVE SMOOTH",
"120 35 OFFCURVE",
"170 0 OFFCURVE",
"255 0 CURVE SMOOTH"
);
}
);
width = 906;
}
);
note = g45;
},
{
glyphname = g46;
lastChange = "2016-11-10 17:41:15 +0000";
layers = (
{
layerId = "5B8CD0D6-7305-4246-9307-178461FF2756";
paths = (
{
closed = 1;
nodes = (
"840 0 LINE",
"840 155 LINE",
"267 155 LINE",
"295 255 OFFCURVE",
"495 497 OFFCURVE",
"616 604 CURVE",
"521 695 LINE",
"322 542 OFFCURVE",
"120 272 OFFCURVE",
"120 128 CURVE SMOOTH",
"120 43 OFFCURVE",
"165 0 OFFCURVE",
"255 0 CURVE SMOOTH"
);
}
);
width = 840;
}
);
note = g46;
},
{
glyphname = g48;
lastChange = "2016-11-10 17:41:15 +0000";
layers = (
{
layerId = "5B8CD0D6-7305-4246-9307-178461FF2756";
paths = (
{
closed = 1;
nodes = (
"748 -740 LINE",
"969 -511 OFFCURVE",
"1153 -238 OFFCURVE",
"1241 -6 CURVE SMOOTH",
"1250 17 OFFCURVE",
"1254 40 OFFCURVE",
"1254 61 CURVE SMOOTH",
"1254 122 OFFCURVE",
"1211 155 OFFCURVE",
"1151 155 CURVE SMOOTH",
"801 155 LINE",
"810 246 OFFCURVE",
"973 466 OFFCURVE",
"1140 597 CURVE",
"1043 694 LINE",
"867 571 OFFCURVE",
"661 293 OFFCURVE",
"661 141 CURVE SMOOTH",
"661 52 OFFCURVE",
"714 0 OFFCURVE",
"814 0 CURVE SMOOTH",
"1088 0 LINE",
"1012 -172 OFFCURVE",
"826 -455 OFFCURVE",
"715 -575 CURVE",
"519 -215 OFFCURVE",
"382 121 OFFCURVE",
"281 505 CURVE",
"140 467 LINE",
"165 349 OFFCURVE",
"199 228 OFFCURVE",
"242 105 CURVE SMOOTH",
"327 -142 OFFCURVE",
"462 -445 OFFCURVE",
"641 -740 CURVE"
);
}
);
width = 1374;
}
);
note = g48;
},
{
glyphname = g49;
lastChange = "2016-11-10 17:41:15 +0000";
layers = (
{
layerId = "5B8CD0D6-7305-4246-9307-178461FF2756";
paths = (
{
closed = 1;
nodes = (
"748 -740 LINE",
"957 -524 OFFCURVE",
"1143 -236 OFFCURVE",
"1223 0 CURVE",
"1360 0 LINE",
"1360 155 LINE",
"803 155 LINE",
"812 246 OFFCURVE",
"975 466 OFFCURVE",
"1142 597 CURVE",
"1044 694 LINE",
"985 653 OFFCURVE",
"925 597 OFFCURVE",
"864 526 CURVE SMOOTH",
"741 383 OFFCURVE",
"663 237 OFFCURVE",
"663 141 CURVE SMOOTH",
"663 52 OFFCURVE",
"716 0 OFFCURVE",
"816 0 CURVE SMOOTH",
"1068 0 LINE",
"1001 -177 OFFCURVE",
"814 -467 OFFCURVE",
"715 -575 CURVE",
"519 -215 OFFCURVE",
"382 121 OFFCURVE",
"281 505 CURVE",
"140 467 LINE",
"165 349 OFFCURVE",
"199 228 OFFCURVE",
"242 105 CURVE SMOOTH",
"327 -142 OFFCURVE",
"462 -445 OFFCURVE",
"641 -740 CURVE"
);
}
);
width = 1360;
}
);
note = g49;
},
{
glyphname = g50;
lastChange = "2016-11-10 17:41:15 +0000";
layers = (
{
layerId = "5B8CD0D6-7305-4246-9307-178461FF2756";
paths = (
{
closed = 1;
nodes = (
"643 -780 LINE",
"746 -659 OFFCURVE",
"835 -543 OFFCURVE",
"910 -434 CURVE SMOOTH",
"1058 -216 OFFCURVE",
"1153 -8 OFFCURVE",
"1153 61 CURVE SMOOTH",
"1153 122 OFFCURVE",
"1110 155 OFFCURVE",
"1049 155 CURVE SMOOTH",
"700 155 LINE",
"709 246 OFFCURVE",
"875 469 OFFCURVE",
"1038 597 CURVE",
"941 694 LINE",
"765 571 OFFCURVE",
"559 293 OFFCURVE",
"559 141 CURVE SMOOTH",
"559 50 OFFCURVE",
"613 0 OFFCURVE",
"714 0 CURVE SMOOTH",
"986 0 LINE",
"913 -177 OFFCURVE",
"732 -464 OFFCURVE",
"609 -609 CURVE",
"500 -364 OFFCURVE",
"430 -213 OFFCURVE",
"401 -156 CURVE SMOOTH",
"341 -42 OFFCURVE",
"284 31 OFFCURVE",
"219 81 CURVE SMOOTH",
"154 131 OFFCURVE",
"81 155 OFFCURVE",
"0 155 CURVE SMOOTH",
"-44 155 OFFCURVE",
"-81 126 OFFCURVE",
"-81 78 CURVE SMOOTH",
"-81 29 OFFCURVE",
"-44 0 OFFCURVE",
"0 0 CURVE SMOOTH",
"96 0 OFFCURVE",
"157 -54 OFFCURVE",
"239 -183 CURVE SMOOTH",
"280 -248 OFFCURVE",
"329 -343 OFFCURVE",
"386 -468 CURVE SMOOTH",
"441 -589 OFFCURVE",
"491 -693 OFFCURVE",
"535 -780 CURVE"
);
}
);
width = 1273;
}
);
note = g50;
},
{
glyphname = g51;
lastChange = "2016-11-10 17:41:15 +0000";
layers = (
{
layerId = "5B8CD0D6-7305-4246-9307-178461FF2756";
paths = (
{
closed = 1;
nodes = (
"643 -780 LINE",
"746 -656 OFFCURVE",
"823 -557 OFFCURVE",
"873 -484 CURVE SMOOTH",
"972 -338 OFFCURVE",
"1056 -181 OFFCURVE",
"1120 0 CURVE",
"1256 0 LINE",
"1256 155 LINE",
"699 155 LINE",
"708 246 OFFCURVE",
"871 466 OFFCURVE",
"1038 597 CURVE",
"941 694 LINE",
"765 571 OFFCURVE",
"559 293 OFFCURVE",
"559 141 CURVE SMOOTH",
"559 50 OFFCURVE",
"613 0 OFFCURVE",
"713 0 CURVE SMOOTH",
"966 0 LINE",
"902 -188 OFFCURVE",
"726 -469 OFFCURVE",
"609 -608 CURVE",
"500 -363 OFFCURVE",
"432 -212 OFFCURVE",
"403 -155 CURVE SMOOTH",
"345 -42 OFFCURVE",
"289 33 OFFCURVE",
"223 83 CURVE SMOOTH",
"157 133 OFFCURVE",
"85 155 OFFCURVE",
"0 155 CURVE SMOOTH",
"-45 155 OFFCURVE",
"-81 126 OFFCURVE",
"-81 78 CURVE SMOOTH",
"-81 29 OFFCURVE",
"-45 0 OFFCURVE",
"0 0 CURVE SMOOTH",
"50 0 OFFCURVE",
"92 -13 OFFCURVE",
"127 -40 CURVE SMOOTH",
"195 -93 OFFCURVE",
"279 -226 OFFCURVE",
"386 -465 CURVE SMOOTH",
"438 -580 OFFCURVE",
"488 -685 OFFCURVE",
"535 -780 CURVE"
);
}
);
width = 1256;
}
);
note = g51;
},
{
glyphname = g53;
lastChange = "2016-11-10 17:41:15 +0000";
layers = (
{
layerId = "5B8CD0D6-7305-4246-9307-178461FF2756";
paths = (
{
closed = 1;
nodes = (
"742 0 LINE",
"742 1422 LINE",
"592 1422 LINE",
"592 155 LINE",
"100 155 LINE",
"100 0 LINE"
);
}
);
width = 942;
}
);
note = g53;
},
{
glyphname = g54;
lastChange = "2016-11-10 17:41:15 +0000";
layers = (
{
layerId = "5B8CD0D6-7305-4246-9307-178461FF2756";
paths = (
{
closed = 1;
nodes = (
"965 0 LINE",
"965 155 LINE",
"742 155 LINE",
"742 1422 LINE",
"592 1422 LINE",
"592 155 LINE",
"100 155 LINE",
"100 0 LINE"
);
}
);
width = 965;
}
);
note = g54;
},
{
glyphname = g55;
lastChange = "2016-11-10 17:41:15 +0000";
layers = (
{
layerId = "5B8CD0D6-7305-4246-9307-178461FF2756";
paths = (
{
closed = 1;
nodes = (
"383 0 LINE",
"383 1422 LINE",
"233 1422 LINE",
"233 155 LINE",
"0 155 LINE SMOOTH",
"-45 155 OFFCURVE",
"-81 126 OFFCURVE",
"-81 78 CURVE SMOOTH",
"-81 29 OFFCURVE",
"-45 0 OFFCURVE",
"0 0 CURVE SMOOTH"
);
}
);
width = 583;
}
);
note = g55;
},
{
glyphname = g56;
lastChange = "2016-11-10 17:41:15 +0000";
layers = (
{
layerId = "5B8CD0D6-7305-4246-9307-178461FF2756";
paths = (
{
closed = 1;
nodes = (
"607 0 LINE",
"607 155 LINE",
"384 155 LINE",
"384 1422 LINE",
"233 1422 LINE",
"233 155 LINE",
"0 155 LINE SMOOTH",
"-45 155 OFFCURVE",
"-81 126 OFFCURVE",
"-81 78 CURVE SMOOTH",
"-81 29 OFFCURVE",
"-45 0 OFFCURVE",
"0 0 CURVE SMOOTH"
);
}
);
width = 607;
}
);
note = g56;
},
{
glyphname = g58;
lastChange = "2016-11-10 17:41:15 +0000";
layers = (
{
layerId = "5B8CD0D6-7305-4246-9307-178461FF2756";
paths = (
{
closed = 1;
nodes = (
"1859 -326 LINE",
"1859 1009 LINE",
"1709 1009 LINE",
"1709 636 LINE",
"639 636 LINE",
"703 669 OFFCURVE",
"816 744 OFFCURVE",
"861 781 CURVE SMOOTH",
"1034 926 LINE",
"937 1019 LINE",
"674 804 OFFCURVE",
"528 686 OFFCURVE",
"500 664 CURVE SMOOTH",
"471 642 OFFCURVE",
"450 627 OFFCURVE",
"437 618 CURVE SMOOTH",
"424 609 OFFCURVE",
"412 602 OFFCURVE",
"403 597 CURVE",
"403 486 LINE",
"1020 486 LINE SMOOTH",
"1131 486 OFFCURVE",
"1195 424 OFFCURVE",
"1195 321 CURVE SMOOTH",
"1195 213 OFFCURVE",
"1128 155 OFFCURVE",
"1012 155 CURVE SMOOTH",
"100 155 LINE",
"100 0 LINE",
"1012 0 LINE SMOOTH",
"1220 0 OFFCURVE",
"1346 116 OFFCURVE",
"1346 321 CURVE SMOOTH",
"1346 385 OFFCURVE",
"1328 440 OFFCURVE",
"1292 486 CURVE",
"1709 486 LINE",
"1709 -326 LINE"
);
}
);
width = 2029;
}
);
note = g58;
},
{
glyphname = g59;
lastChange = "2016-11-10 17:41:15 +0000";
layers = (
{
layerId = "5B8CD0D6-7305-4246-9307-178461FF2756";
paths = (
{
closed = 1;
nodes = (
"1012 0 LINE SMOOTH",
"1220 0 OFFCURVE",
"1346 116 OFFCURVE",
"1346 321 CURVE SMOOTH",
"1346 385 OFFCURVE",
"1328 440 OFFCURVE",
"1292 486 CURVE",
"1709 486 LINE",
"1709 366 LINE SMOOTH",
"1709 118 OFFCURVE",
"1806 0 OFFCURVE",
"2015 0 CURVE SMOOTH",
"2072 0 LINE",
"2072 155 LINE",
"2029 155 LINE SMOOTH",
"1980 155 OFFCURVE",
"1946 162 OFFCURVE",
"1925 177 CURVE SMOOTH",
"1883 205 OFFCURVE",
"1859 266 OFFCURVE",
"1859 381 CURVE SMOOTH",
"1859 1009 LINE",
"1709 1009 LINE",
"1709 636 LINE",
"639 636 LINE",
"708 672 OFFCURVE",
"820 749 OFFCURVE",
"860 781 CURVE SMOOTH",
"1033 926 LINE",
"936 1019 LINE",
"673 804 OFFCURVE",
"527 686 OFFCURVE",
"499 664 CURVE SMOOTH",
"470 642 OFFCURVE",
"449 627 OFFCURVE",
"436 618 CURVE SMOOTH",
"423 609 OFFCURVE",
"411 602 OFFCURVE",
"402 597 CURVE",
"402 486 LINE",
"1020 486 LINE SMOOTH",
"1131 486 OFFCURVE",
"1195 424 OFFCURVE",
"1195 321 CURVE SMOOTH",
"1195 213 OFFCURVE",
"1128 155 OFFCURVE",
"1012 155 CURVE SMOOTH",
"100 155 LINE",
"100 0 LINE"
);
}
);
width = 2072;
}
);
note = g59;
},
{
glyphname = g60;
lastChange = "2016-11-10 17:41:15 +0000";
layers = (
{
layerId = "5B8CD0D6-7305-4246-9307-178461FF2756";
paths = (
{
closed = 1;
nodes = (
"1622 -326 LINE",
"1622 1009 LINE",
"1472 1009 LINE",
"1472 636 LINE",
"401 636 LINE",
"454 665 OFFCURVE",
"573 740 OFFCURVE",
"622 781 CURVE SMOOTH",
"795 926 LINE",
"699 1020 LINE",
"320 710 LINE SMOOTH",
"241 648 OFFCURVE",
"190 610 OFFCURVE",
"165 597 CURVE",
"165 486 LINE",
"783 486 LINE SMOOTH",
"895 486 OFFCURVE",
"957 426 OFFCURVE",
"957 321 CURVE SMOOTH",
"957 214 OFFCURVE",
"892 155 OFFCURVE",
"775 155 CURVE SMOOTH",
"0 155 LINE SMOOTH",
"-44 155 OFFCURVE",
"-81 126 OFFCURVE",
"-81 78 CURVE SMOOTH",
"-81 29 OFFCURVE",
"-44 0 OFFCURVE",
"0 0 CURVE SMOOTH",
"775 0 LINE SMOOTH",
"983 0 OFFCURVE",
"1109 116 OFFCURVE",
"1109 321 CURVE SMOOTH",
"1109 385 OFFCURVE",
"1091 440 OFFCURVE",
"1055 486 CURVE",
"1472 486 LINE",
"1472 -326 LINE"
);
}
);
width = 1792;
}
);
note = g60;
},
{
glyphname = g61;
lastChange = "2016-11-10 17:41:15 +0000";
layers = (
{
layerId = "5B8CD0D6-7305-4246-9307-178461FF2756";
paths = (
{
closed = 1;
nodes = (
"775 0 LINE SMOOTH",
"983 0 OFFCURVE",
"1109 116 OFFCURVE",
"1109 321 CURVE SMOOTH",
"1109 385 OFFCURVE",
"1091 440 OFFCURVE",
"1055 486 CURVE",
"1472 486 LINE",
"1472 366 LINE SMOOTH",
"1472 117 OFFCURVE",
"1561 0 OFFCURVE",
"1766 0 CURVE SMOOTH",
"1834 0 LINE",
"1834 155 LINE",
"1792 155 LINE SMOOTH",
"1743 155 OFFCURVE",
"1708 162 OFFCURVE",
"1687 177 CURVE SMOOTH",
"1645 206 OFFCURVE",
"1622 266 OFFCURVE",
"1622 381 CURVE SMOOTH",
"1622 1009 LINE",
"1472 1009 LINE",
"1472 636 LINE",
"401 636 LINE",
"470 672 OFFCURVE",
"583 748 OFFCURVE",
"623 781 CURVE SMOOTH",
"795 926 LINE",
"699 1020 LINE",
"433 803 OFFCURVE",
"296 691 OFFCURVE",
"288 685 CURVE SMOOTH",
"279 678 OFFCURVE",
"261 664 OFFCURVE",
"233 643 CURVE SMOOTH",
"204 621 OFFCURVE",
"182 606 OFFCURVE",
"165 597 CURVE",
"165 486 LINE",
"783 486 LINE SMOOTH",
"895 486 OFFCURVE",
"958 426 OFFCURVE",
"958 321 CURVE SMOOTH",
"958 213 OFFCURVE",
"891 155 OFFCURVE",
"775 155 CURVE SMOOTH",
"0 155 LINE SMOOTH",
"-45 155 OFFCURVE",
"-81 126 OFFCURVE",
"-81 78 CURVE SMOOTH",
"-81 29 OFFCURVE",
"-45 0 OFFCURVE",
"0 0 CURVE SMOOTH"
);
}
);
width = 1834;
}
);
note = g61;
},
{
glyphname = g63;
lastChange = "2016-11-10 17:41:15 +0000";
layers = (
{
layerId = "5B8CD0D6-7305-4246-9307-178461FF2756";
paths = (
{
closed = 1;
nodes = (
"621 -740 LINE",
"838 -448 OFFCURVE",
"1062 61 OFFCURVE",
"1062 353 CURVE SMOOTH",
"1062 422 OFFCURVE",
"1058 472 OFFCURVE",
"1051 505 CURVE",
"909 485 LINE",
"914 446 OFFCURVE",
"916 392 OFFCURVE",
"916 322 CURVE",
"903 110 OFFCURVE",
"751 -272 OFFCURVE",
"590 -545 CURVE",
"541 -431 OFFCURVE",
"500 -325 OFFCURVE",
"466 -227 CURVE SMOOTH",
"397 -31 OFFCURVE",
"356 125 OFFCURVE",
"283 505 CURVE",
"140 479 LINE",
"191 94 OFFCURVE",
"330 -364 OFFCURVE",
"515 -740 CURVE"
);
}
);
width = 1202;
}
);
note = g63;
},
{
glyphname = g64;
lastChange = "2016-11-10 17:41:15 +0000";
layers = (
{
layerId = "5B8CD0D6-7305-4246-9307-178461FF2756";
paths = (
{
closed = 1;
nodes = (
"621 -740 LINE",
"784 -531 OFFCURVE",
"938 -201 OFFCURVE",
"1011 79 CURVE",
"1054 28 OFFCURVE",
"1124 2 OFFCURVE",
"1221 0 CURVE",
"1221 155 LINE",
"1124 155 OFFCURVE",
"1057 193 OFFCURVE",
"1042 273 CURVE",
"1042 293 LINE SMOOTH",
"1042 341 OFFCURVE",
"1038 381 OFFCURVE",
"1031 414 CURVE",
"894 394 LINE",
"896 333 LINE",
"896 282 LINE",
"892 213 OFFCURVE",
"875 127 OFFCURVE",
"844 24 CURVE SMOOTH",
"782 -181 OFFCURVE",
"678 -410 OFFCURVE",
"587 -554 CURVE",
"452 -225 OFFCURVE",
"356 90 OFFCURVE",
"283 505 CURVE",
"140 479 LINE",
"192 64 OFFCURVE",
"354 -443 OFFCURVE",
"515 -740 CURVE"
);
}
);
width = 1221;
}
);
note = g64;
},
{
glyphname = g65;
lastChange = "2016-11-10 17:41:15 +0000";
layers = (
{
layerId = "5B8CD0D6-7305-4246-9307-178461FF2756";
paths = (
{
closed = 1;
nodes = (
"505 -754 LINE",
"764 -391 OFFCURVE",
"956 74 OFFCURVE",
"956 353 CURVE SMOOTH",
"956 434 OFFCURVE",
"952 485 OFFCURVE",
"945 505 CURVE",
"803 485 LINE",
"808 429 OFFCURVE",
"810 375 OFFCURVE",
"810 322 CURVE",
"795 106 OFFCURVE",
"640 -280 OFFCURVE",
"484 -545 CURVE",
"414 -318 OFFCURVE",
"367 -172 OFFCURVE",
"342 -107 CURVE SMOOTH",
"274 77 OFFCURVE",
"177 155 OFFCURVE",
"0 155 CURVE SMOOTH",
"-45 155 OFFCURVE",
"-81 126 OFFCURVE",
"-81 78 CURVE SMOOTH",
"-81 29 OFFCURVE",
"-45 0 OFFCURVE",
"0 0 CURVE SMOOTH",
"88 0 OFFCURVE",
"124 -23 OFFCURVE",
"161 -79 CURVE SMOOTH",
"180 -108 OFFCURVE",
"215 -195 OFFCURVE",
"264 -339 CURVE SMOOTH",
"404 -754 LINE"
);
}
);
width = 1094;
}
);
note = g65;
},
{
glyphname = g66;
lastChange = "2016-11-10 17:41:15 +0000";
layers = (
{
layerId = "5B8CD0D6-7305-4246-9307-178461FF2756";
paths = (
{
closed = 1;
nodes = (
"513 -780 LINE",
"692 -529 OFFCURVE",
"865 -184 OFFCURVE",
"933 77 CURVE",
"976 28 OFFCURVE",
"1046 3 OFFCURVE",
"1142 0 CURVE",
"1142 155 LINE",
"1046 155 OFFCURVE",
"979 192 OFFCURVE",
"963 268 CURVE",
"964 280 LINE",
"964 293 LINE SMOOTH",
"964 354 OFFCURVE",
"960 394 OFFCURVE",
"953 414 CURVE",
"811 394 LINE",
"815 346 OFFCURVE",
"817 309 OFFCURVE",
"817 282 CURVE",
"804 78 OFFCURVE",
"659 -287 OFFCURVE",
"492 -571 CURVE",
"427 -360 OFFCURVE",
"388 -238 OFFCURVE",
"377 -205 CURVE SMOOTH",
"366 -172 OFFCURVE",
"354 -140 OFFCURVE",
"342 -107 CURVE SMOOTH",
"274 77 OFFCURVE",
"177 155 OFFCURVE",
"0 155 CURVE SMOOTH",
"-45 155 OFFCURVE",
"-81 126 OFFCURVE",
"-81 78 CURVE SMOOTH",
"-81 29 OFFCURVE",
"-45 0 OFFCURVE",
"0 0 CURVE SMOOTH",
"88 0 OFFCURVE",
"124 -23 OFFCURVE",
"161 -79 CURVE SMOOTH",
"180 -108 OFFCURVE",
"215 -195 OFFCURVE",
"264 -339 CURVE SMOOTH",
"412 -780 LINE"
);
}
);
width = 1142;
}
);
note = g66;
},
{
glyphname = g68;
lastChange = "2016-11-10 17:41:15 +0000";
layers = (
{
layerId = "5B8CD0D6-7305-4246-9307-178461FF2756";
paths = (
{
closed = 1;
nodes = (
"351 0 LINE SMOOTH",
"516 0 OFFCURVE",
"634 49 OFFCURVE",
"691 125 CURVE",
"770 36 OFFCURVE",
"873 0 OFFCURVE",
"1050 0 CURVE SMOOTH",
"1534 0 LINE SMOOTH",
"1783 0 OFFCURVE",
"1893 73 OFFCURVE",
"1893 250 CURVE SMOOTH",
"1893 329 OFFCURVE",
"1877 401 OFFCURVE",
"1844 466 CURVE SMOOTH",
"1778 594 OFFCURVE",
"1652 670 OFFCURVE",
"1489 670 CURVE SMOOTH",
"1253 670 OFFCURVE",
"1062 517 OFFCURVE",
"897 174 CURVE",
"826 195 OFFCURVE",
"784 230 OFFCURVE",
"771 277 CURVE",
"775 303 OFFCURVE",
"777 329 OFFCURVE",
"777 356 CURVE SMOOTH",
"777 379 LINE",
"775 402 LINE",
"637 386 LINE",
"630 219 OFFCURVE",
"548 155 OFFCURVE",
"369 155 CURVE SMOOTH",
"100 155 LINE",
"100 0 LINE"
);
},
{
closed = 1;
nodes = (
"1157 378 OFFCURVE",
"1327 519 OFFCURVE",
"1492 519 CURVE SMOOTH",
"1643 519 OFFCURVE",
"1743 416 OFFCURVE",
"1743 253 CURVE SMOOTH",
"1743 190 OFFCURVE",
"1687 155 OFFCURVE",
"1591 155 CURVE SMOOTH",
"1054 155 LINE"
);
}
);
width = 2033;
}
);
note = g68;
},
{
glyphname = g69;
lastChange = "2016-11-10 17:41:15 +0000";
layers = (
{
layerId = "5B8CD0D6-7305-4246-9307-178461FF2756";
paths = (
{
closed = 1;
nodes = (
"351 0 LINE SMOOTH",
"516 0 OFFCURVE",
"634 49 OFFCURVE",
"691 125 CURVE",
"770 36 OFFCURVE",
"873 0 OFFCURVE",
"1050 0 CURVE SMOOTH",
"2052 0 LINE",
"2052 155 LINE",
"1870 155 LINE",
"1885 184 OFFCURVE",
"1893 219 OFFCURVE",
"1893 260 CURVE SMOOTH",
"1893 336 OFFCURVE",
"1877 406 OFFCURVE",
"1844 469 CURVE SMOOTH",
"1778 595 OFFCURVE",
"1652 670 OFFCURVE",
"1489 670 CURVE SMOOTH",
"1253 670 OFFCURVE",
"1062 517 OFFCURVE",
"897 174 CURVE",
"826 195 OFFCURVE",
"784 230 OFFCURVE",
"771 277 CURVE",
"775 303 OFFCURVE",
"777 329 OFFCURVE",
"777 356 CURVE SMOOTH",
"777 379 LINE",
"775 402 LINE",
"637 386 LINE",
"630 219 OFFCURVE",
"548 155 OFFCURVE",
"369 155 CURVE SMOOTH",
"100 155 LINE",
"100 0 LINE"
);
},
{
closed = 1;
nodes = (
"1157 378 OFFCURVE",
"1327 519 OFFCURVE",
"1492 519 CURVE SMOOTH",
"1643 519 OFFCURVE",
"1743 416 OFFCURVE",
"1743 253 CURVE SMOOTH",
"1743 188 OFFCURVE",
"1701 155 OFFCURVE",
"1617 155 CURVE SMOOTH",
"1054 155 LINE"
);
}
);
width = 2052;
}
);
note = g69;
},
{
glyphname = g70;
lastChange = "2016-11-10 17:41:15 +0000";
layers = (
{
layerId = "5B8CD0D6-7305-4246-9307-178461FF2756";
paths = (
{
closed = 1;
nodes = (
"5 0 LINE SMOOTH",
"114 0 OFFCURVE",
"199 41 OFFCURVE",
"260 124 CURVE",
"336 37 OFFCURVE",
"440 0 OFFCURVE",
"619 0 CURVE SMOOTH",
"1103 0 LINE SMOOTH",
"1352 0 OFFCURVE",
"1462 73 OFFCURVE",
"1462 250 CURVE SMOOTH",
"1462 329 OFFCURVE",
"1446 401 OFFCURVE",
"1413 466 CURVE SMOOTH",
"1347 594 OFFCURVE",
"1221 670 OFFCURVE",
"1058 670 CURVE SMOOTH",
"822 670 OFFCURVE",
"631 517 OFFCURVE",
"466 174 CURVE",
"395 195 OFFCURVE",
"353 230 OFFCURVE",
"340 277 CURVE",
"344 303 OFFCURVE",
"346 329 OFFCURVE",
"346 356 CURVE SMOOTH",
"346 379 LINE",
"344 402 LINE",
"201 386 LINE",
"201 239 OFFCURVE",
"134 155 OFFCURVE",
"10 155 CURVE SMOOTH",
"0 155 LINE SMOOTH",
"-45 155 OFFCURVE",
"-81 126 OFFCURVE",
"-81 78 CURVE SMOOTH",
"-81 29 OFFCURVE",
"-45 0 OFFCURVE",
"0 0 CURVE SMOOTH"
);
},
{
closed = 1;
nodes = (
"726 378 OFFCURVE",
"896 519 OFFCURVE",
"1061 519 CURVE SMOOTH",
"1212 519 OFFCURVE",
"1312 416 OFFCURVE",
"1312 253 CURVE SMOOTH",
"1312 190 OFFCURVE",
"1256 155 OFFCURVE",
"1160 155 CURVE SMOOTH",
"623 155 LINE"
);
}
);
width = 1602;
}
);
note = g70;
},
{
glyphname = g71;
lastChange = "2016-11-10 17:41:15 +0000";
layers = (
{
layerId = "5B8CD0D6-7305-4246-9307-178461FF2756";
paths = (
{
closed = 1;
nodes = (
"5 0 LINE SMOOTH",
"114 0 OFFCURVE",
"199 41 OFFCURVE",
"260 124 CURVE",
"336 37 OFFCURVE",
"440 0 OFFCURVE",
"619 0 CURVE SMOOTH",
"1621 0 LINE",
"1621 155 LINE",
"1439 155 LINE",
"1454 184 OFFCURVE",
"1462 219 OFFCURVE",
"1462 260 CURVE SMOOTH",
"1462 336 OFFCURVE",
"1446 406 OFFCURVE",
"1413 469 CURVE SMOOTH",
"1347 595 OFFCURVE",
"1221 670 OFFCURVE",
"1058 670 CURVE SMOOTH",
"822 670 OFFCURVE",
"631 517 OFFCURVE",
"466 174 CURVE",
"395 195 OFFCURVE",
"353 230 OFFCURVE",
"340 277 CURVE",
"344 303 OFFCURVE",
"346 329 OFFCURVE",
"346 356 CURVE SMOOTH",
"346 379 LINE",
"344 402 LINE",
"201 386 LINE",
"201 239 OFFCURVE",
"134 155 OFFCURVE",
"10 155 CURVE SMOOTH",
"0 155 LINE SMOOTH",
"-45 155 OFFCURVE",
"-81 126 OFFCURVE",
"-81 78 CURVE SMOOTH",
"-81 29 OFFCURVE",
"-45 0 OFFCURVE",
"0 0 CURVE SMOOTH"
);
},
{
closed = 1;
nodes = (
"726 378 OFFCURVE",
"896 519 OFFCURVE",
"1061 519 CURVE SMOOTH",
"1212 519 OFFCURVE",
"1312 416 OFFCURVE",
"1312 253 CURVE SMOOTH",
"1312 188 OFFCURVE",
"1270 155 OFFCURVE",
"1186 155 CURVE SMOOTH",
"623 155 LINE"
);
}
);
width = 1621;
}
);
note = g71;
},
{
glyphname = g73;
lastChange = "2016-11-10 17:41:15 +0000";
layers = (
{
layerId = "5B8CD0D6-7305-4246-9307-178461FF2756";
paths = (
{
closed = 1;
nodes = (
"1254 0 LINE SMOOTH",
"1462 0 OFFCURVE",
"1588 116 OFFCURVE",
"1588 321 CURVE SMOOTH",
"1588 524 OFFCURVE",
"1466 636 OFFCURVE",
"1254 636 CURVE SMOOTH",
"668 636 LINE",
"732 668 OFFCURVE",
"799 707 OFFCURVE",
"869 754 CURVE",
"1098 920 LINE",
"1006 1020 LINE",
"564 700 LINE SMOOTH",
"543 684 OFFCURVE",
"442 617 OFFCURVE",
"402 597 CURVE",
"402 486 LINE",
"1254 486 LINE SMOOTH",
"1371 486 OFFCURVE",
"1438 426 OFFCURVE",
"1438 321 CURVE SMOOTH",
"1438 218 OFFCURVE",
"1373 155 OFFCURVE",
"1254 155 CURVE SMOOTH",
"100 155 LINE",
"100 0 LINE"
);
}
);
width = 1748;
}
);
note = g73;
},
{
glyphname = g74;
lastChange = "2016-11-10 17:41:15 +0000";
layers = (
{
layerId = "5B8CD0D6-7305-4246-9307-178461FF2756";
paths = (
{
closed = 1;
nodes = (
"1749 0 LINE",
"1749 155 LINE",
"1544 155 LINE",
"1573 204 OFFCURVE",
"1588 259 OFFCURVE",
"1588 321 CURVE SMOOTH",
"1588 524 OFFCURVE",
"1466 636 OFFCURVE",
"1254 636 CURVE SMOOTH",
"668 636 LINE",
"729 667 OFFCURVE",
"796 706 OFFCURVE",
"868 754 CURVE",
"1098 920 LINE",
"1005 1020 LINE",
"564 700 LINE SMOOTH",
"502 655 OFFCURVE",
"448 620 OFFCURVE",
"402 597 CURVE",
"402 486 LINE",
"1254 486 LINE SMOOTH",
"1373 486 OFFCURVE",
"1438 424 OFFCURVE",
"1438 320 CURVE SMOOTH",
"1438 215 OFFCURVE",
"1371 155 OFFCURVE",
"1254 155 CURVE SMOOTH",
"100 155 LINE",
"100 0 LINE"
);
}
);
width = 1749;
}
);
note = g74;
},
{
glyphname = g75;
lastChange = "2016-11-10 17:41:15 +0000";
layers = (
{
layerId = "5B8CD0D6-7305-4246-9307-178461FF2756";
paths = (
{
closed = 1;
nodes = (
"1018 0 LINE SMOOTH",
"1226 0 OFFCURVE",
"1352 116 OFFCURVE",
"1352 321 CURVE SMOOTH",
"1352 524 OFFCURVE",
"1230 636 OFFCURVE",
"1018 636 CURVE SMOOTH",
"432 636 LINE",
"493 667 OFFCURVE",
"560 706 OFFCURVE",
"632 754 CURVE",
"862 920 LINE",
"769 1020 LINE",
"328 700 LINE SMOOTH",
"266 655 OFFCURVE",
"212 620 OFFCURVE",
"166 597 CURVE",
"166 486 LINE",
"1018 486 LINE SMOOTH",
"1137 486 OFFCURVE",
"1202 424 OFFCURVE",
"1202 320 CURVE SMOOTH",
"1202 215 OFFCURVE",
"1135 155 OFFCURVE",
"1018 155 CURVE SMOOTH",
"0 155 LINE SMOOTH",
"-45 155 OFFCURVE",
"-81 126 OFFCURVE",
"-81 78 CURVE SMOOTH",
"-81 29 OFFCURVE",
"-45 0 OFFCURVE",
"0 0 CURVE SMOOTH"
);
}
);
width = 1512;
}
);
note = g75;
},
{
glyphname = g76;
lastChange = "2016-11-10 17:41:15 +0000";
layers = (
{
layerId = "5B8CD0D6-7305-4246-9307-178461FF2756";
paths = (
{
closed = 1;
nodes = (
"1513 0 LINE",
"1513 155 LINE",
"1308 155 LINE",
"1337 204 OFFCURVE",
"1352 259 OFFCURVE",
"1352 321 CURVE SMOOTH",
"1352 524 OFFCURVE",
"1230 636 OFFCURVE",
"1018 636 CURVE SMOOTH",
"432 636 LINE",
"493 667 OFFCURVE",
"560 706 OFFCURVE",
"632 754 CURVE",
"862 920 LINE",
"769 1020 LINE",
"328 700 LINE SMOOTH",
"266 655 OFFCURVE",
"212 620 OFFCURVE",
"166 597 CURVE",
"166 486 LINE",
"1018 486 LINE SMOOTH",
"1137 486 OFFCURVE",
"1202 424 OFFCURVE",
"1202 320 CURVE SMOOTH",
"1202 215 OFFCURVE",
"1135 155 OFFCURVE",
"1018 155 CURVE SMOOTH",
"0 155 LINE SMOOTH",
"-45 155 OFFCURVE",
"-81 126 OFFCURVE",
"-81 78 CURVE SMOOTH",
"-81 29 OFFCURVE",
"-45 0 OFFCURVE",
"0 0 CURVE SMOOTH"
);
}
);
width = 1513;
}
);
note = g76;
},
{
glyphname = g78;
lastChange = "2016-11-10 17:41:15 +0000";
layers = (
{
layerId = "5B8CD0D6-7305-4246-9307-178461FF2756";
paths = (
{
closed = 1;
nodes = (
"774 -780 LINE",
"885 -648 OFFCURVE",
"963 -550 OFFCURVE",
"1008 -487 CURVE SMOOTH",
"1097 -361 OFFCURVE",
"1178 -222 OFFCURVE",
"1244 -62 CURVE SMOOTH",
"1310 97 OFFCURVE",
"1334 214 OFFCURVE",
"1334 342 CURVE SMOOTH",
"1334 403 OFFCURVE",
"1320 459 OFFCURVE",
"1293 511 CURVE SMOOTH",
"1237 615 OFFCURVE",
"1131 676 OFFCURVE",
"999 676 CURVE SMOOTH",
"936 676 OFFCURVE",
"878 659 OFFCURVE",
"825 625 CURVE SMOOTH",
"719 557 OFFCURVE",
"647 419 OFFCURVE",
"647 292 CURVE SMOOTH",
"647 104 OFFCURVE",
"760 0 OFFCURVE",
"975 0 CURVE SMOOTH",
"1111 0 LINE",
"1043 -185 OFFCURVE",
"918 -387 OFFCURVE",
"736 -606 CURVE",
"666 -475 OFFCURVE",
"605 -353 OFFCURVE",
"554 -242 CURVE SMOOTH",
"451 -19 OFFCURVE",
"389 141 OFFCURVE",
"280 505 CURVE",
"140 465 LINE",
"166 352 OFFCURVE",
"208 217 OFFCURVE",
"266 58 CURVE SMOOTH",
"382 -260 OFFCURVE",
"488 -465 OFFCURVE",
"669 -780 CURVE"
);
},
{
closed = 1;
nodes = (
"852 155 OFFCURVE",
"789 208 OFFCURVE",
"789 315 CURVE SMOOTH",
"789 348 OFFCURVE",
"798 381 OFFCURVE",
"817 416 CURVE SMOOTH",
"854 484 OFFCURVE",
"921 529 OFFCURVE",
"996 529 CURVE SMOOTH",
"1109 529 OFFCURVE",
"1187 445 OFFCURVE",
"1187 321 CURVE SMOOTH",
"1187 259 OFFCURVE",
"1179 204 OFFCURVE",
"1164 155 CURVE",
"979 155 LINE SMOOTH"
);
}
);
width = 1474;
}
);
note = g78;
},
{
glyphname = g79;
lastChange = "2016-11-10 17:41:15 +0000";
layers = (
{
layerId = "5B8CD0D6-7305-4246-9307-178461FF2756";
paths = (
{
closed = 1;
nodes = (
"774 -780 LINE",
"890 -640 OFFCURVE",
"972 -536 OFFCURVE",
"1019 -467 CURVE SMOOTH",
"1114 -331 OFFCURVE",
"1197 -183 OFFCURVE",
"1268 0 CURVE",
"1486 0 LINE",
"1486 155 LINE",
"1309 155 LINE",
"1323 206 OFFCURVE",
"1330 269 OFFCURVE",
"1330 342 CURVE SMOOTH",
"1330 405 OFFCURVE",
"1316 461 OFFCURVE",
"1289 512 CURVE SMOOTH",
"1233 613 OFFCURVE",
"1127 676 OFFCURVE",
"995 676 CURVE SMOOTH",
"932 676 OFFCURVE",
"874 659 OFFCURVE",
"821 625 CURVE SMOOTH",
"715 557 OFFCURVE",
"643 419 OFFCURVE",
"643 292 CURVE SMOOTH",
"643 103 OFFCURVE",
"758 0 OFFCURVE",
"971 0 CURVE SMOOTH",
"1111 0 LINE",
"1036 -185 OFFCURVE",
"899 -410 OFFCURVE",
"736 -606 CURVE",
"666 -475 OFFCURVE",
"605 -353 OFFCURVE",
"554 -242 CURVE SMOOTH",
"451 -19 OFFCURVE",
"389 141 OFFCURVE",
"280 505 CURVE",
"140 465 LINE",
"166 352 OFFCURVE",
"208 217 OFFCURVE",
"266 58 CURVE SMOOTH",
"382 -260 OFFCURVE",
"488 -465 OFFCURVE",
"669 -780 CURVE"
);
},
{
closed = 1;
nodes = (
"848 155 OFFCURVE",
"785 208 OFFCURVE",
"785 314 CURVE SMOOTH",
"785 348 OFFCURVE",
"795 382 OFFCURVE",
"814 417 CURVE SMOOTH",
"853 485 OFFCURVE",
"919 529 OFFCURVE",
"992 529 CURVE SMOOTH",
"1104 529 OFFCURVE",
"1183 449 OFFCURVE",
"1183 322 CURVE SMOOTH",
"1183 254 OFFCURVE",
"1175 198 OFFCURVE",
"1159 155 CURVE",
"975 155 LINE SMOOTH"
);
}
);
width = 1486;
}
);
note = g79;
},
{
glyphname = g80;
lastChange = "2016-11-10 17:41:15 +0000";
layers = (
{
layerId = "5B8CD0D6-7305-4246-9307-178461FF2756";
paths = (
{
closed = 1;
nodes = (
"638 -780 LINE",
"863 -516 OFFCURVE",
"972 -338 OFFCURVE",
"1054 -150 CURVE SMOOTH",
"1136 38 OFFCURVE",
"1178 194 OFFCURVE",
"1178 342 CURVE SMOOTH",
"1178 403 OFFCURVE",
"1164 459 OFFCURVE",
"1136 511 CURVE SMOOTH",
"1080 615 OFFCURVE",
"975 677 OFFCURVE",
"842 677 CURVE SMOOTH",
"779 677 OFFCURVE",
"720 660 OFFCURVE",
"667 626 CURVE SMOOTH",
"560 558 OFFCURVE",
"489 420 OFFCURVE",
"489 293 CURVE SMOOTH",
"489 104 OFFCURVE",
"604 0 OFFCURVE",
"820 0 CURVE SMOOTH",
"955 0 LINE",
"883 -199 OFFCURVE",
"728 -468 OFFCURVE",
"609 -608 CURVE",
"500 -363 OFFCURVE",
"428 -207 OFFCURVE",
"392 -138 CURVE SMOOTH",
"356 -69 OFFCURVE",
"319 -14 OFFCURVE",
"280 29 CURVE SMOOTH",
"202 113 OFFCURVE",
"113 155 OFFCURVE",
"0 155 CURVE SMOOTH",
"-45 155 OFFCURVE",
"-81 126 OFFCURVE",
"-81 78 CURVE SMOOTH",
"-81 29 OFFCURVE",
"-45 0 OFFCURVE",
"0 0 CURVE SMOOTH",
"52 0 OFFCURVE",
"95 -15 OFFCURVE",
"130 -44 CURVE SMOOTH",
"198 -104 OFFCURVE",
"281 -239 OFFCURVE",
"341 -376 CURVE SMOOTH",
"413 -532 OFFCURVE",
"477 -667 OFFCURVE",
"534 -780 CURVE"
);
},
{
closed = 1;
nodes = (
"695 155 OFFCURVE",
"632 208 OFFCURVE",
"632 315 CURVE SMOOTH",
"632 350 OFFCURVE",
"641 384 OFFCURVE",
"660 417 CURVE SMOOTH",
"697 484 OFFCURVE",
"764 529 OFFCURVE",
"839 529 CURVE SMOOTH",
"952 529 OFFCURVE",
"1031 449 OFFCURVE",
"1031 322 CURVE SMOOTH",
"1031 254 OFFCURVE",
"1023 198 OFFCURVE",
"1007 155 CURVE",
"822 155 LINE SMOOTH"
);
}
);
width = 1319;
}
);
note = g80;
},
{
glyphname = g81;
lastChange = "2016-11-10 17:41:15 +0000";
layers = (
{
layerId = "5B8CD0D6-7305-4246-9307-178461FF2756";
paths = (
{
closed = 1;
nodes = (
"638 -780 LINE",
"847 -537 OFFCURVE",
"1005 -277 OFFCURVE",
"1111 0 CURVE",
"1331 0 LINE",
"1331 155 LINE",
"1153 155 LINE",
"1168 209 OFFCURVE",
"1175 271 OFFCURVE",
"1175 342 CURVE SMOOTH",
"1175 403 OFFCURVE",
"1161 459 OFFCURVE",
"1133 511 CURVE SMOOTH",
"1077 615 OFFCURVE",
"972 677 OFFCURVE",
"839 677 CURVE SMOOTH",
"774 677 OFFCURVE",
"716 660 OFFCURVE",
"663 626 CURVE SMOOTH",
"558 558 OFFCURVE",
"486 420 OFFCURVE",
"486 293 CURVE SMOOTH",
"486 104 OFFCURVE",
"601 0 OFFCURVE",
"817 0 CURVE SMOOTH",
"954 0 LINE",
"893 -177 OFFCURVE",
"724 -466 OFFCURVE",
"609 -607 CURVE",
"543 -455 LINE SMOOTH",
"456 -258 OFFCURVE",
"390 -124 OFFCURVE",
"344 -53 CURVE SMOOTH",
"251 87 OFFCURVE",
"144 155 OFFCURVE",
"0 155 CURVE SMOOTH",
"-45 155 OFFCURVE",
"-81 126 OFFCURVE",
"-81 78 CURVE SMOOTH",
"-81 29 OFFCURVE",
"-45 0 OFFCURVE",
"0 0 CURVE SMOOTH",
"49 0 OFFCURVE",
"90 -13 OFFCURVE",
"125 -40 CURVE SMOOTH",
"193 -94 OFFCURVE",
"279 -233 OFFCURVE",
"342 -376 CURVE SMOOTH",
"395 -496 OFFCURVE",
"459 -631 OFFCURVE",
"534 -780 CURVE"
);
},
{
closed = 1;
nodes = (
"692 155 OFFCURVE",
"629 208 OFFCURVE",
"629 315 CURVE SMOOTH",
"629 350 OFFCURVE",
"638 384 OFFCURVE",
"657 417 CURVE SMOOTH",
"694 484 OFFCURVE",
"761 529 OFFCURVE",
"836 529 CURVE SMOOTH",
"948 529 OFFCURVE",
"1028 446 OFFCURVE",
"1028 322 CURVE SMOOTH",
"1028 254 OFFCURVE",
"1020 198 OFFCURVE",
"1004 155 CURVE",
"819 155 LINE SMOOTH"
);
}
);
width = 1331;
}
);
note = g81;
},
{
glyphname = g83;
lastChange = "2016-11-10 17:41:15 +0000";
layers = (
{
layerId = "5B8CD0D6-7305-4246-9307-178461FF2756";
paths = (
{
closed = 1;
nodes = (
"621 -740 LINE",
"674 -671 OFFCURVE",
"727 -590 OFFCURVE",
"778 -496 CURVE SMOOTH",
"881 -308 OFFCURVE",
"980 -53 OFFCURVE",
"1012 82 CURVE",
"1053 27 OFFCURVE",
"1114 0 OFFCURVE",
"1194 0 CURVE SMOOTH",
"1294 0 OFFCURVE",
"1372 41 OFFCURVE",
"1428 122 CURVE",
"1472 41 OFFCURVE",
"1545 0 OFFCURVE",
"1646 0 CURVE SMOOTH",
"1835 0 OFFCURVE",
"1955 141 OFFCURVE",
"1955 349 CURVE SMOOTH",
"1955 394 OFFCURVE",
"1950 433 OFFCURVE",
"1941 468 CURVE",
"1806 438 LINE",
"1811 356 LINE",
"1811 221 OFFCURVE",
"1749 155 OFFCURVE",
"1634 155 CURVE SMOOTH",
"1567 155 OFFCURVE",
"1511 199 OFFCURVE",
"1500 258 CURVE",
"1507 289 OFFCURVE",
"1510 321 OFFCURVE",
"1510 356 CURVE SMOOTH",
"1510 384 LINE",
"1508 412 LINE",
"1369 396 LINE",
"1369 235 OFFCURVE",
"1308 155 OFFCURVE",
"1185 155 CURVE SMOOTH",
"1109 155 OFFCURVE",
"1054 202 OFFCURVE",
"1042 273 CURVE",
"1042 293 LINE SMOOTH",
"1042 341 OFFCURVE",
"1038 381 OFFCURVE",
"1031 414 CURVE",
"894 394 LINE",
"896 333 LINE",
"896 282 LINE",
"892 213 OFFCURVE",
"875 127 OFFCURVE",
"844 24 CURVE SMOOTH",
"782 -181 OFFCURVE",
"678 -410 OFFCURVE",
"587 -554 CURVE",
"452 -225 OFFCURVE",
"356 90 OFFCURVE",
"283 505 CURVE",
"140 479 LINE",
"192 64 OFFCURVE",
"354 -443 OFFCURVE",
"515 -740 CURVE"
);
}
);
width = 2095;
}
);
note = g83;
},
{
glyphname = g84;
lastChange = "2016-11-10 17:41:15 +0000";
layers = (
{
layerId = "5B8CD0D6-7305-4246-9307-178461FF2756";
paths = (
{
closed = 1;
nodes = (
"621 -740 LINE",
"674 -671 OFFCURVE",
"727 -590 OFFCURVE",
"778 -496 CURVE SMOOTH",
"881 -308 OFFCURVE",
"980 -53 OFFCURVE",
"1012 82 CURVE",
"1053 27 OFFCURVE",
"1114 0 OFFCURVE",
"1194 0 CURVE SMOOTH",
"1296 0 OFFCURVE",
"1375 42 OFFCURVE",
"1432 127 CURVE",
"1482 42 OFFCURVE",
"1576 0 OFFCURVE",
"1713 0 CURVE SMOOTH",
"1724 0 LINE",
"1724 155 LINE",
"1719 155 LINE SMOOTH",
"1604 155 OFFCURVE",
"1522 196 OFFCURVE",
"1503 275 CURVE",
"1508 298 OFFCURVE",
"1510 325 OFFCURVE",
"1510 356 CURVE SMOOTH",
"1510 385 LINE",
"1508 414 LINE",
"1369 398 LINE",
"1369 236 OFFCURVE",
"1308 155 OFFCURVE",
"1185 155 CURVE SMOOTH",
"1109 155 OFFCURVE",
"1054 202 OFFCURVE",
"1042 273 CURVE",
"1042 293 LINE SMOOTH",
"1042 339 OFFCURVE",
"1039 375 OFFCURVE",
"1032 402 CURVE",
"895 382 LINE",
"896 326 LINE",
"896 282 LINE",
"892 213 OFFCURVE",
"875 127 OFFCURVE",
"844 24 CURVE SMOOTH",
"782 -181 OFFCURVE",
"678 -410 OFFCURVE",
"587 -554 CURVE",
"452 -225 OFFCURVE",
"356 90 OFFCURVE",
"283 505 CURVE",
"140 479 LINE",
"192 64 OFFCURVE",
"354 -443 OFFCURVE",
"515 -740 CURVE"
);
}
);
width = 1724;
}
);
note = g84;
},
{
glyphname = g85;
lastChange = "2016-11-10 17:41:15 +0000";
layers = (
{
layerId = "5B8CD0D6-7305-4246-9307-178461FF2756";
paths = (
{
closed = 1;
nodes = (
"514 -780 LINE",
"569 -702 OFFCURVE",
"620 -619 OFFCURVE",
"669 -532 CURVE SMOOTH",
"766 -357 OFFCURVE",
"851 -172 OFFCURVE",
"931 87 CURVE",
"972 29 OFFCURVE",
"1034 0 OFFCURVE",
"1116 0 CURVE SMOOTH",
"1216 0 OFFCURVE",
"1294 41 OFFCURVE",
"1350 122 CURVE",
"1394 41 OFFCURVE",
"1467 0 OFFCURVE",
"1568 0 CURVE SMOOTH",
"1757 0 OFFCURVE",
"1877 141 OFFCURVE",
"1877 349 CURVE SMOOTH",
"1877 394 OFFCURVE",
"1872 433 OFFCURVE",
"1863 468 CURVE",
"1728 438 LINE",
"1733 356 LINE",
"1733 221 OFFCURVE",
"1671 155 OFFCURVE",
"1556 155 CURVE SMOOTH",
"1489 155 OFFCURVE",
"1433 199 OFFCURVE",
"1422 258 CURVE",
"1429 289 OFFCURVE",
"1432 321 OFFCURVE",
"1432 356 CURVE SMOOTH",
"1432 385 LINE",
"1430 414 LINE",
"1291 398 LINE",
"1291 236 OFFCURVE",
"1230 155 OFFCURVE",
"1107 155 CURVE SMOOTH",
"1032 155 OFFCURVE",
"976 201 OFFCURVE",
"964 274 CURVE",
"964 293 LINE SMOOTH",
"964 341 OFFCURVE",
"961 377 OFFCURVE",
"954 402 CURVE",
"818 382 LINE",
"817 293 LINE",
"806 86 OFFCURVE",
"653 -290 OFFCURVE",
"493 -562 CURVE",
"443 -409 LINE SMOOTH",
"398 -268 OFFCURVE",
"365 -168 OFFCURVE",
"342 -107 CURVE SMOOTH",
"270 81 OFFCURVE",
"176 155 OFFCURVE",
"0 155 CURVE SMOOTH",
"-44 155 OFFCURVE",
"-81 126 OFFCURVE",
"-81 78 CURVE SMOOTH",
"-81 29 OFFCURVE",
"-44 0 OFFCURVE",
"0 0 CURVE SMOOTH",
"91 0 OFFCURVE",
"125 -23 OFFCURVE",
"162 -79 CURVE SMOOTH",
"189 -120 OFFCURVE",
"259 -311 OFFCURVE",
"370 -651 CURVE SMOOTH",
"412 -780 LINE"
);
}
);
width = 2017;
}
);
note = g85;
},
{
glyphname = g86;
lastChange = "2016-11-10 17:41:15 +0000";
layers = (
{
layerId = "5B8CD0D6-7305-4246-9307-178461FF2756";
paths = (
{
closed = 1;
nodes = (
"514 -780 LINE",
"569 -702 OFFCURVE",
"620 -619 OFFCURVE",
"669 -532 CURVE SMOOTH",
"766 -357 OFFCURVE",
"851 -172 OFFCURVE",
"931 87 CURVE",
"972 29 OFFCURVE",
"1034 0 OFFCURVE",
"1116 0 CURVE SMOOTH",
"1218 0 OFFCURVE",
"1297 42 OFFCURVE",
"1354 127 CURVE",
"1404 42 OFFCURVE",
"1498 0 OFFCURVE",
"1635 0 CURVE SMOOTH",
"1646 0 LINE",
"1646 155 LINE",
"1641 155 LINE SMOOTH",
"1526 155 OFFCURVE",
"1444 196 OFFCURVE",
"1425 275 CURVE",
"1430 298 OFFCURVE",
"1432 325 OFFCURVE",
"1432 356 CURVE SMOOTH",
"1432 385 LINE",
"1430 414 LINE",
"1291 398 LINE",
"1291 236 OFFCURVE",
"1230 155 OFFCURVE",
"1107 155 CURVE SMOOTH",
"1032 155 OFFCURVE",
"976 201 OFFCURVE",
"964 274 CURVE",
"964 293 LINE SMOOTH",
"964 341 OFFCURVE",
"961 377 OFFCURVE",
"954 402 CURVE",
"818 382 LINE",
"817 293 LINE",
"806 86 OFFCURVE",
"653 -290 OFFCURVE",
"493 -562 CURVE",
"443 -409 LINE SMOOTH",
"398 -268 OFFCURVE",
"365 -168 OFFCURVE",
"342 -107 CURVE SMOOTH",
"270 81 OFFCURVE",
"176 155 OFFCURVE",
"0 155 CURVE SMOOTH",
"-44 155 OFFCURVE",
"-81 126 OFFCURVE",
"-81 78 CURVE SMOOTH",
"-81 29 OFFCURVE",
"-44 0 OFFCURVE",
"0 0 CURVE SMOOTH",
"91 0 OFFCURVE",
"125 -23 OFFCURVE",
"162 -79 CURVE SMOOTH",
"189 -120 OFFCURVE",
"259 -311 OFFCURVE",
"370 -651 CURVE SMOOTH",
"412 -780 LINE"
);
}
);
width = 1646;
}
);
note = g86;
},
{
glyphname = g88;
lastChange = "2016-11-10 17:41:15 +0000";
layers = (
{
layerId = "5B8CD0D6-7305-4246-9307-178461FF2756";
paths = (
{
closed = 1;
nodes = (
"1595 0 LINE",
"1595 998 LINE",
"1445 998 LINE",
"1445 636 LINE",
"616 636 LINE",
"665 675 OFFCURVE",
"710 717 OFFCURVE",
"750 762 CURVE SMOOTH",
"909 944 LINE",
"797 1019 LINE",
"510 698 LINE SMOOTH",
"466 649 OFFCURVE",
"432 616 OFFCURVE",
"409 598 CURVE",
"409 486 LINE",
"719 486 LINE SMOOTH",
"835 486 OFFCURVE",
"903 426 OFFCURVE",
"903 321 CURVE SMOOTH",
"903 214 OFFCURVE",
"834 155 OFFCURVE",
"709 155 CURVE SMOOTH",
"100 155 LINE",
"100 0 LINE"
);
},
{
closed = 1;
nodes = (
"1021 189 OFFCURVE",
"1053 244 OFFCURVE",
"1053 321 CURVE SMOOTH",
"1053 397 OFFCURVE",
"1024 452 OFFCURVE",
"966 486 CURVE",
"1445 486 LINE",
"1445 155 LINE",
"956 155 LINE"
);
}
);
width = 1765;
}
);
note = g88;
},
{
glyphname = g89;
lastChange = "2016-11-10 17:41:15 +0000";
layers = (
{
layerId = "5B8CD0D6-7305-4246-9307-178461FF2756";
paths = (
{
closed = 1;
nodes = (
"1808 0 LINE",
"1808 155 LINE",
"1596 155 LINE",
"1596 998 LINE",
"1446 998 LINE",
"1446 636 LINE",
"617 636 LINE",
"664 673 OFFCURVE",
"708 715 OFFCURVE",
"750 762 CURVE SMOOTH",
"910 944 LINE",
"797 1019 LINE",
"598 794 OFFCURVE",
"487 671 OFFCURVE",
"464 648 CURVE SMOOTH",
"441 625 OFFCURVE",
"423 609 OFFCURVE",
"409 598 CURVE",
"409 486 LINE",
"709 486 LINE SMOOTH",
"832 486 OFFCURVE",
"903 429 OFFCURVE",
"903 321 CURVE SMOOTH",
"903 214 OFFCURVE",
"834 155 OFFCURVE",
"709 155 CURVE SMOOTH",
"100 155 LINE",
"100 0 LINE"
);
},
{
closed = 1;
nodes = (
"1021 188 OFFCURVE",
"1053 243 OFFCURVE",
"1053 321 CURVE SMOOTH",
"1053 397 OFFCURVE",
"1024 452 OFFCURVE",
"966 486 CURVE",
"1446 486 LINE",
"1446 155 LINE",
"956 155 LINE"
);
}
);
width = 1808;
}
);
note = g89;
},
{
glyphname = g90;
lastChange = "2016-11-10 17:41:15 +0000";
layers = (
{
layerId = "5B8CD0D6-7305-4246-9307-178461FF2756";
paths = (
{
closed = 1;
nodes = (
"1352 0 LINE",
"1352 998 LINE",
"1202 998 LINE",
"1202 636 LINE",
"374 636 LINE",
"419 672 OFFCURVE",
"491 742 OFFCURVE",
"507 762 CURVE",
"666 944 LINE",
"553 1019 LINE",
"267 698 LINE SMOOTH",
"223 649 OFFCURVE",
"189 616 OFFCURVE",
"166 598 CURVE",
"166 486 LINE",
"466 486 LINE SMOOTH",
"589 486 OFFCURVE",
"660 429 OFFCURVE",
"660 321 CURVE SMOOTH",
"660 214 OFFCURVE",
"591 155 OFFCURVE",
"466 155 CURVE SMOOTH",
"0 155 LINE SMOOTH",
"-44 155 OFFCURVE",
"-81 126 OFFCURVE",
"-81 78 CURVE SMOOTH",
"-81 29 OFFCURVE",
"-44 0 OFFCURVE",
"0 0 CURVE SMOOTH"
);
},
{
closed = 1;
nodes = (
"778 189 OFFCURVE",
"810 244 OFFCURVE",
"810 321 CURVE SMOOTH",
"810 397 OFFCURVE",
"781 452 OFFCURVE",
"723 486 CURVE",
"1202 486 LINE",
"1202 155 LINE",
"713 155 LINE"
);
}
);
width = 1522;
}
);
note = g90;
},
{
glyphname = g91;
lastChange = "2016-11-10 17:41:15 +0000";
layers = (
{
layerId = "5B8CD0D6-7305-4246-9307-178461FF2756";
paths = (
{
closed = 1;
nodes = (
"1564 0 LINE",
"1564 155 LINE",
"1352 155 LINE",
"1352 998 LINE",
"1202 998 LINE",
"1202 636 LINE",
"374 636 LINE",
"421 673 OFFCURVE",
"465 715 OFFCURVE",
"507 762 CURVE SMOOTH",
"666 944 LINE",
"554 1019 LINE",
"267 698 LINE SMOOTH",
"223 649 OFFCURVE",
"189 616 OFFCURVE",
"166 598 CURVE",
"166 486 LINE",
"466 486 LINE SMOOTH",
"589 486 OFFCURVE",
"660 429 OFFCURVE",
"660 321 CURVE SMOOTH",
"660 214 OFFCURVE",
"591 155 OFFCURVE",
"466 155 CURVE SMOOTH",
"0 155 LINE SMOOTH",
"-45 155 OFFCURVE",
"-81 126 OFFCURVE",
"-81 78 CURVE SMOOTH",
"-81 29 OFFCURVE",
"-45 0 OFFCURVE",
"0 0 CURVE SMOOTH"
);
},
{
closed = 1;
nodes = (
"778 189 OFFCURVE",
"810 244 OFFCURVE",
"810 321 CURVE SMOOTH",
"810 397 OFFCURVE",
"781 452 OFFCURVE",
"723 486 CURVE",
"1202 486 LINE",
"1202 155 LINE",
"713 155 LINE"
);
}
);
width = 1564;
}
);
note = g91;
},
{
glyphname = g93;
lastChange = "2016-11-10 17:37:31 +0000";
layers = (
{
layerId = "5B8CD0D6-7305-4246-9307-178461FF2756";
paths = (
{
closed = 1;
nodes = (
"1531 0 LINE",
"1531 998 LINE",
"1381 998 LINE",
"1381 636 LINE",
"597 636 LINE",
"646 675 OFFCURVE",
"723 745 OFFCURVE",
"750 777 CURVE SMOOTH",
"895 943 LINE",
"782 1019 LINE",
"546 752 LINE SMOOTH",
"488 687 OFFCURVE",
"442 640 OFFCURVE",
"409 613 CURVE",
"409 486 LINE",
"1381 486 LINE",
"1381 155 LINE",
"100 155 LINE",
"100 0 LINE"
);
}
);
width = 1701;
}
);
note = g93;
},
{
glyphname = g94;
lastChange = "2016-11-10 17:41:15 +0000";
layers = (
{
layerId = "5B8CD0D6-7305-4246-9307-178461FF2756";
paths = (
{
closed = 1;
nodes = (
"1743 0 LINE",
"1743 155 LINE",
"1531 155 LINE",
"1531 998 LINE",
"1381 998 LINE",
"1381 636 LINE",
"597 636 LINE",
"646 675 OFFCURVE",
"723 745 OFFCURVE",
"750 777 CURVE SMOOTH",
"895 943 LINE",
"782 1019 LINE",
"546 752 LINE SMOOTH",
"488 687 OFFCURVE",
"442 640 OFFCURVE",
"409 613 CURVE",
"409 486 LINE",
"1381 486 LINE",
"1381 155 LINE",
"100 155 LINE",
"100 0 LINE"
);
}
);
width = 1743;
}
);
note = g94;
},
{
glyphname = g95;
lastChange = "2016-11-10 17:41:15 +0000";
layers = (
{
layerId = "5B8CD0D6-7305-4246-9307-178461FF2756";
paths = (
{
closed = 1;
nodes = (
"1288 0 LINE",
"1288 998 LINE",
"1138 998 LINE",
"1138 636 LINE",
"355 636 LINE",
"424 689 OFFCURVE",
"490 757 OFFCURVE",
"507 777 CURVE SMOOTH",
"650 943 LINE",
"539 1019 LINE",
"342 796 OFFCURVE",
"234 676 OFFCURVE",
"215 657 CURVE SMOOTH",
"196 638 OFFCURVE",
"179 623 OFFCURVE",
"166 613 CURVE",
"166 486 LINE",
"1138 486 LINE",
"1138 155 LINE",
"0 155 LINE SMOOTH",
"-45 155 OFFCURVE",
"-81 126 OFFCURVE",
"-81 78 CURVE SMOOTH",
"-81 29 OFFCURVE",
"-45 0 OFFCURVE",
"0 0 CURVE SMOOTH"
);
}
);
width = 1458;
}
);
note = g95;
},
{
glyphname = g96;
lastChange = "2016-11-10 17:41:15 +0000";
layers = (
{
layerId = "5B8CD0D6-7305-4246-9307-178461FF2756";
paths = (
{
closed = 1;
nodes = (
"1500 0 LINE",
"1500 155 LINE",
"1288 155 LINE",
"1288 998 LINE",
"1138 998 LINE",
"1138 636 LINE",
"355 636 LINE",
"414 680 OFFCURVE",
"489 756 OFFCURVE",
"506 777 CURVE SMOOTH",
"649 943 LINE",
"539 1019 LINE",
"345 801 OFFCURVE",
"237 681 OFFCURVE",
"215 659 CURVE SMOOTH",
"193 637 OFFCURVE",
"176 622 OFFCURVE",
"165 613 CURVE",
"165 486 LINE",
"1138 486 LINE",
"1138 155 LINE",
"0 155 LINE SMOOTH",
"-45 155 OFFCURVE",
"-81 126 OFFCURVE",
"-81 78 CURVE SMOOTH",
"-81 29 OFFCURVE",
"-45 0 OFFCURVE",
"0 0 CURVE SMOOTH"
);
}
);
width = 1500;
}
);
note = g96;
},
{
glyphname = g98;
lastChange = "2016-11-10 17:41:15 +0000";
layers = (
{
layerId = "5B8CD0D6-7305-4246-9307-178461FF2756";
paths = (
{
closed = 1;
nodes = (
"986 -492 LINE",
"1114 0 LINE",
"1338 0 LINE SMOOTH",
"1585 0 OFFCURVE",
"1730 124 OFFCURVE",
"1730 344 CURVE SMOOTH",
"1730 407 OFFCURVE",
"1717 466 OFFCURVE",
"1690 520 CURVE SMOOTH",
"1637 627 OFFCURVE",
"1537 690 OFFCURVE",
"1412 690 CURVE SMOOTH",
"1344 690 OFFCURVE",
"1288 675 OFFCURVE",
"1243 646 CURVE SMOOTH",
"1154 587 OFFCURVE",
"1097 493 OFFCURVE",
"1049 318 CURVE SMOOTH",
"1001 143 OFFCURVE",
"953 -109 OFFCURVE",
"925 -309 CURVE",
"906 -309 LINE",
"891 -53 OFFCURVE",
"822 349 OFFCURVE",
"781 461 CURVE SMOOTH",
"760 517 OFFCURVE",
"735 562 OFFCURVE",
"705 596 CURVE SMOOTH",
"645 663 OFFCURVE",
"575 690 OFFCURVE",
"471 690 CURVE SMOOTH",
"409 690 OFFCURVE",
"353 673 OFFCURVE",
"302 638 CURVE SMOOTH",
"201 569 OFFCURVE",
"140 441 OFFCURVE",
"140 316 CURVE SMOOTH",
"140 120 OFFCURVE",
"278 0 OFFCURVE",
"513 0 CURVE SMOOTH",
"736 0 LINE",
"786 -255 LINE SMOOTH",
"798 -322 OFFCURVE",
"814 -401 OFFCURVE",
"835 -492 CURVE"
);
},
{
closed = 1;
nodes = (
"368 155 OFFCURVE",
"287 214 OFFCURVE",
"287 329 CURVE SMOOTH",
"287 365 OFFCURVE",
"295 399 OFFCURVE",
"311 432 CURVE SMOOTH",
"343 497 OFFCURVE",
"402 540 OFFCURVE",
"477 540 CURVE SMOOTH",
"556 540 OFFCURVE",
"603 493 OFFCURVE",
"635 422 CURVE SMOOTH",
"667 350 OFFCURVE",
"682 254 OFFCURVE",
"701 155 CURVE",
"517 155 LINE SMOOTH"
);
},
{
closed = 1;
nodes = (
"1188 281 OFFCURVE",
"1216 366 OFFCURVE",
"1238 410 CURVE SMOOTH",
"1281 497 OFFCURVE",
"1334 540 OFFCURVE",
"1415 540 CURVE SMOOTH",
"1514 540 OFFCURVE",
"1577 464 OFFCURVE",
"1577 340 CURVE SMOOTH",
"1577 221 OFFCURVE",
"1494 155 OFFCURVE",
"1345 155 CURVE SMOOTH",
"1153 155 LINE"
);
}
);
width = 1870;
}
);
note = g98;
},
{
glyphname = g99;
lastChange = "2016-11-10 17:41:15 +0000";
layers = (
{
layerId = "5B8CD0D6-7305-4246-9307-178461FF2756";
paths = (
{
closed = 1;
nodes = (
"986 -492 LINE",
"1114 0 LINE",
"1888 0 LINE",
"1888 155 LINE",
"1666 155 LINE",
"1709 204 OFFCURVE",
"1730 267 OFFCURVE",
"1730 344 CURVE SMOOTH",
"1730 407 OFFCURVE",
"1717 466 OFFCURVE",
"1690 520 CURVE SMOOTH",
"1637 627 OFFCURVE",
"1537 690 OFFCURVE",
"1412 690 CURVE SMOOTH",
"1344 690 OFFCURVE",
"1288 675 OFFCURVE",
"1243 646 CURVE SMOOTH",
"1154 587 OFFCURVE",
"1097 493 OFFCURVE",
"1049 318 CURVE SMOOTH",
"1001 143 OFFCURVE",
"953 -109 OFFCURVE",
"925 -309 CURVE",
"906 -309 LINE",
"891 -53 OFFCURVE",
"822 349 OFFCURVE",
"781 461 CURVE SMOOTH",
"760 517 OFFCURVE",
"735 562 OFFCURVE",
"705 596 CURVE SMOOTH",
"645 663 OFFCURVE",
"575 690 OFFCURVE",
"471 690 CURVE SMOOTH",
"409 690 OFFCURVE",
"353 673 OFFCURVE",
"302 638 CURVE SMOOTH",
"201 569 OFFCURVE",
"140 441 OFFCURVE",
"140 316 CURVE SMOOTH",
"140 120 OFFCURVE",
"278 0 OFFCURVE",
"513 0 CURVE SMOOTH",
"736 0 LINE",
"786 -255 LINE SMOOTH",
"798 -322 OFFCURVE",
"814 -401 OFFCURVE",
"835 -492 CURVE"
);
},
{
closed = 1;
nodes = (
"368 155 OFFCURVE",
"287 214 OFFCURVE",
"287 329 CURVE SMOOTH",
"287 365 OFFCURVE",
"295 399 OFFCURVE",
"311 432 CURVE SMOOTH",
"343 497 OFFCURVE",
"402 540 OFFCURVE",
"477 540 CURVE SMOOTH",
"556 540 OFFCURVE",
"603 493 OFFCURVE",
"635 422 CURVE SMOOTH",
"667 350 OFFCURVE",
"682 254 OFFCURVE",
"701 155 CURVE",
"517 155 LINE SMOOTH"
);
},
{
closed = 1;
nodes = (
"1188 281 OFFCURVE",
"1216 366 OFFCURVE",
"1238 410 CURVE SMOOTH",
"1281 497 OFFCURVE",
"1334 540 OFFCURVE",
"1415 540 CURVE SMOOTH",
"1514 540 OFFCURVE",
"1577 464 OFFCURVE",
"1577 340 CURVE SMOOTH",
"1577 221 OFFCURVE",
"1494 155 OFFCURVE",
"1345 155 CURVE SMOOTH",
"1153 155 LINE"
);
}
);
width = 1888;
}
);
note = g99;
},
{
glyphname = g101;
lastChange = "2016-11-10 17:41:15 +0000";
layers = (
{
layerId = "5B8CD0D6-7305-4246-9307-178461FF2756";
paths = (
{
closed = 1;
nodes = (
"1144 -326 LINE",
"1144 1009 LINE",
"994 1009 LINE",
"994 697 LINE",
"931 626 OFFCURVE",
"803 583 OFFCURVE",
"655 583 CURVE",
"599 587 LINE",
"580 622 OFFCURVE",
"561 657 OFFCURVE",
"540 690 CURVE",
"416 600 LINE",
"494 464 OFFCURVE",
"533 358 OFFCURVE",
"533 282 CURVE SMOOTH",
"533 194 OFFCURVE",
"487 155 OFFCURVE",
"359 155 CURVE SMOOTH",
"100 155 LINE",
"100 0 LINE",
"354 0 LINE SMOOTH",
"569 0 OFFCURVE",
"683 92 OFFCURVE",
"683 271 CURVE SMOOTH",
"683 317 OFFCURVE",
"674 372 OFFCURVE",
"657 437 CURVE",
"672 436 LINE",
"685 436 LINE SMOOTH",
"813 436 OFFCURVE",
"907 465 OFFCURVE",
"994 529 CURVE",
"994 -326 LINE"
);
}
);
width = 1314;
}
);
note = g101;
},
{
glyphname = g102;
lastChange = "2016-11-10 17:41:15 +0000";
layers = (
{
layerId = "5B8CD0D6-7305-4246-9307-178461FF2756";
paths = (
{
closed = 1;
nodes = (
"355 0 LINE SMOOTH",
"570 0 OFFCURVE",
"684 92 OFFCURVE",
"684 271 CURVE SMOOTH",
"684 317 OFFCURVE",
"675 372 OFFCURVE",
"658 437 CURVE",
"673 436 LINE",
"686 436 LINE SMOOTH",
"814 436 OFFCURVE",
"908 465 OFFCURVE",
"995 529 CURVE",
"995 366 LINE SMOOTH",
"995 115 OFFCURVE",
"1086 0 OFFCURVE",
"1290 0 CURVE SMOOTH",
"1358 0 LINE",
"1358 155 LINE",
"1317 155 LINE SMOOTH",
"1268 155 OFFCURVE",
"1232 162 OFFCURVE",
"1211 177 CURVE SMOOTH",
"1168 206 OFFCURVE",
"1145 266 OFFCURVE",
"1145 381 CURVE SMOOTH",
"1145 1009 LINE",
"995 1009 LINE",
"995 697 LINE",
"932 626 OFFCURVE",
"804 583 OFFCURVE",
"656 583 CURVE",
"600 587 LINE",
"581 622 OFFCURVE",
"562 657 OFFCURVE",
"541 690 CURVE",
"417 600 LINE",
"495 464 OFFCURVE",
"534 358 OFFCURVE",
"534 282 CURVE SMOOTH",
"534 194 OFFCURVE",
"488 155 OFFCURVE",
"360 155 CURVE SMOOTH",
"100 155 LINE",
"100 0 LINE"
);
}
);
width = 1358;
}
);
note = g102;
},
{
glyphname = g103;
lastChange = "2016-11-10 17:41:15 +0000";
layers = (
{
layerId = "5B8CD0D6-7305-4246-9307-178461FF2756";
paths = (
{
closed = 1;
nodes = (
"893 -326 LINE",
"893 1009 LINE",
"743 1009 LINE",
"743 697 LINE",
"680 626 OFFCURVE",
"552 583 OFFCURVE",
"404 583 CURVE",
"348 587 LINE",
"329 622 OFFCURVE",
"310 657 OFFCURVE",
"289 690 CURVE",
"165 600 LINE",
"243 464 OFFCURVE",
"282 358 OFFCURVE",
"282 282 CURVE SMOOTH",
"282 194 OFFCURVE",
"236 155 OFFCURVE",
"108 155 CURVE SMOOTH",
"0 155 LINE SMOOTH",
"-45 155 OFFCURVE",
"-81 126 OFFCURVE",
"-81 78 CURVE SMOOTH",
"-81 29 OFFCURVE",
"-45 0 OFFCURVE",
"0 0 CURVE SMOOTH",
"103 0 LINE SMOOTH",
"318 0 OFFCURVE",
"432 92 OFFCURVE",
"432 271 CURVE SMOOTH",
"432 317 OFFCURVE",
"423 372 OFFCURVE",
"406 437 CURVE",
"421 436 LINE",
"434 436 LINE SMOOTH",
"562 436 OFFCURVE",
"656 465 OFFCURVE",
"743 529 CURVE",
"743 -326 LINE"
);
}
);
width = 1063;
}
);
note = g103;
},
{
glyphname = g104;
lastChange = "2016-11-10 17:41:15 +0000";
layers = (
{
layerId = "5B8CD0D6-7305-4246-9307-178461FF2756";
paths = (
{
closed = 1;
nodes = (
"103 0 LINE SMOOTH",
"318 0 OFFCURVE",
"432 92 OFFCURVE",
"432 271 CURVE SMOOTH",
"432 317 OFFCURVE",
"423 372 OFFCURVE",
"406 437 CURVE",
"421 436 LINE",
"434 436 LINE SMOOTH",
"562 436 OFFCURVE",
"656 465 OFFCURVE",
"743 529 CURVE",
"743 366 LINE SMOOTH",
"743 115 OFFCURVE",
"834 0 OFFCURVE",
"1038 0 CURVE SMOOTH",
"1106 0 LINE",
"1106 155 LINE",
"1065 155 LINE SMOOTH",
"1016 155 OFFCURVE",
"980 162 OFFCURVE",
"959 177 CURVE SMOOTH",
"916 206 OFFCURVE",
"893 266 OFFCURVE",
"893 381 CURVE SMOOTH",
"893 1009 LINE",
"743 1009 LINE",
"743 697 LINE",
"680 626 OFFCURVE",
"552 583 OFFCURVE",
"404 583 CURVE",
"348 587 LINE",
"329 622 OFFCURVE",
"310 657 OFFCURVE",
"289 690 CURVE",
"165 600 LINE",
"243 464 OFFCURVE",
"282 358 OFFCURVE",
"282 282 CURVE SMOOTH",
"282 194 OFFCURVE",
"236 155 OFFCURVE",
"108 155 CURVE SMOOTH",
"0 155 LINE SMOOTH",
"-45 155 OFFCURVE",
"-81 126 OFFCURVE",
"-81 78 CURVE SMOOTH",
"-81 29 OFFCURVE",
"-45 0 OFFCURVE",
"0 0 CURVE SMOOTH"
);
}
);
width = 1106;
}
);
note = g104;
},
{
glyphname = g106;
lastChange = "2016-11-10 17:41:15 +0000";
layers = (
{
layerId = "5B8CD0D6-7305-4246-9307-178461FF2756";
paths = (
{
closed = 1;
nodes = (
"1463 0 LINE",
"1463 155 LINE",
"1196 155 LINE SMOOTH",
"1105 155 OFFCURVE",
"1065 166 OFFCURVE",
"1065 229 CURVE SMOOTH",
"1065 300 OFFCURVE",
"1205 468 OFFCURVE",
"1372 604 CURVE",
"1268 695 LINE",
"1064 538 OFFCURVE",
"915 349 OFFCURVE",
"915 214 CURVE SMOOTH",
"915 190 OFFCURVE",
"917 170 OFFCURVE",
"920 155 CURVE",
"287 155 LINE",
"314 247 OFFCURVE",
"505 481 OFFCURVE",
"645 604 CURVE",
"541 695 LINE",
"342 542 OFFCURVE",
"140 272 OFFCURVE",
"140 128 CURVE SMOOTH",
"140 43 OFFCURVE",
"185 0 OFFCURVE",
"275 0 CURVE SMOOTH"
);
}
);
width = 1563;
}
);
note = g106;
},
{
glyphname = g108;
lastChange = "2016-11-10 17:41:15 +0000";
layers = (
{
layerId = "5B8CD0D6-7305-4246-9307-178461FF2756";
paths = (
{
closed = 1;
nodes = (
"1637 -780 LINE",
"1822 -607 OFFCURVE",
"2097 -237 OFFCURVE",
"2192 -6 CURVE SMOOTH",
"2201 16 OFFCURVE",
"2205 38 OFFCURVE",
"2205 61 CURVE SMOOTH",
"2205 122 OFFCURVE",
"2162 155 OFFCURVE",
"2101 155 CURVE SMOOTH",
"1761 155 LINE",
"1770 246 OFFCURVE",
"1933 466 OFFCURVE",
"2100 597 CURVE",
"2003 694 LINE",
"1827 571 OFFCURVE",
"1621 293 OFFCURVE",
"1621 141 CURVE SMOOTH",
"1621 50 OFFCURVE",
"1675 0 OFFCURVE",
"1776 0 CURVE SMOOTH",
"2038 0 LINE",
"1949 -177 OFFCURVE",
"1716 -502 OFFCURVE",
"1615 -603 CURVE",
"1456 -128 OFFCURVE",
"1348 184 OFFCURVE",
"1293 331 CURVE SMOOTH",
"1238 478 OFFCURVE",
"1189 594 OFFCURVE",
"1148 681 CURVE",
"1006 615 LINE",
"1057 506 OFFCURVE",
"1118 353 OFFCURVE",
"1187 155 CURVE",
"280 155 LINE",
"307 247 OFFCURVE",
"498 481 OFFCURVE",
"638 604 CURVE",
"534 695 LINE",
"335 542 OFFCURVE",
"133 272 OFFCURVE",
"133 128 CURVE SMOOTH",
"133 43 OFFCURVE",
"178 0 OFFCURVE",
"268 0 CURVE SMOOTH",
"1241 0 LINE",
"1324 -232 LINE SMOOTH",
"1416 -496 OFFCURVE",
"1484 -679 OFFCURVE",
"1529 -780 CURVE"
);
}
);
width = 2321;
}
);
note = g108;
},
{
glyphname = g110;
lastChange = "2016-11-10 17:41:15 +0000";
layers = (
{
layerId = "5B8CD0D6-7305-4246-9307-178461FF2756";
paths = (
{
closed = 1;
nodes = (
"839 -668 LINE",
"580 -595 OFFCURVE",
"293 -486 OFFCURVE",
"256 -449 CURVE",
"301 -388 OFFCURVE",
"594 -162 OFFCURVE",
"793 -37 CURVE",
"793 96 LINE",
"645 121 OFFCURVE",
"365 177 OFFCURVE",
"320 196 CURVE",
"331 218 OFFCURVE",
"369 259 OFFCURVE",
"436 318 CURVE SMOOTH",
"569 437 OFFCURVE",
"743 566 OFFCURVE",
"818 614 CURVE",
"737 739 LINE",
"690 711 OFFCURVE",
"638 676 OFFCURVE",
"580 633 CURVE SMOOTH",
"464 547 OFFCURVE",
"343 438 OFFCURVE",
"276 363 CURVE SMOOTH",
"209 288 OFFCURVE",
"185 242 OFFCURVE",
"185 173 CURVE SMOOTH",
"185 41 OFFCURVE",
"317 28 OFFCURVE",
"568 -17 CURVE",
"431 -112 LINE SMOOTH",
"309 -196 OFFCURVE",
"226 -263 OFFCURVE",
"182 -314 CURVE SMOOTH",
"138 -365 OFFCURVE",
"116 -419 OFFCURVE",
"116 -477 CURVE SMOOTH",
"116 -522 OFFCURVE",
"136 -560 OFFCURVE",
"175 -591 CURVE SMOOTH",
"253 -654 OFFCURVE",
"611 -786 OFFCURVE",
"782 -826 CURVE"
);
}
);
width = 974;
}
);
note = g110;
},
{
glyphname = g115;
lastChange = "2016-11-10 17:41:15 +0000";
layers = (
{
layerId = "5B8CD0D6-7305-4246-9307-178461FF2756";
paths = (
{
closed = 1;
nodes = (
"719 -6 LINE",
"1081 0 LINE SMOOTH",
"1249 3 OFFCURVE",
"1332 27 OFFCURVE",
"1372 88 CURVE",
"1419 27 OFFCURVE",
"1487 0 OFFCURVE",
"1608 0 CURVE SMOOTH",
"1616 0 LINE",
"1616 155 LINE",
"1528 155 OFFCURVE",
"1491 179 OFFCURVE",
"1456 295 CURVE SMOOTH",
"1375 574 OFFCURVE",
"1250 690 OFFCURVE",
"1031 690 CURVE SMOOTH",
"938 690 OFFCURVE",
"821 667 OFFCURVE",
"679 622 CURVE SMOOTH",
"394 530 OFFCURVE",
"176 398 OFFCURVE",
"133 241 CURVE",
"108 184 OFFCURVE",
"63 155 OFFCURVE",
"0 155 CURVE SMOOTH",
"-45 155 OFFCURVE",
"-81 126 OFFCURVE",
"-81 78 CURVE SMOOTH",
"-81 29 OFFCURVE",
"-45 0 OFFCURVE",
"0 0 CURVE SMOOTH",
"67 0 OFFCURVE",
"119 21 OFFCURVE",
"157 64 CURVE",
"192 14 OFFCURVE",
"250 -11 OFFCURVE",
"333 -11 CURVE SMOOTH"
);
},
{
closed = 1;
nodes = (
"306 145 OFFCURVE",
"277 167 OFFCURVE",
"277 210 CURVE SMOOTH",
"277 251 OFFCURVE",
"320 295 OFFCURVE",
"406 343 CURVE SMOOTH",
"577 438 OFFCURVE",
"888 540 OFFCURVE",
"1009 540 CURVE SMOOTH",
"1066 540 OFFCURVE",
"1115 528 OFFCURVE",
"1158 504 CURVE SMOOTH",
"1243 456 OFFCURVE",
"1304 301 OFFCURVE",
"1304 249 CURVE SMOOTH",
"1304 189 OFFCURVE",
"1233 155 OFFCURVE",
"1106 155 CURVE SMOOTH",
"984 153 LINE",
"363 145 LINE SMOOTH"
);
}
);
width = 1616;
}
);
note = g115;
},
{
glyphname = g116;
lastChange = "2016-11-10 17:41:15 +0000";
layers = (
{
layerId = "5B8CD0D6-7305-4246-9307-178461FF2756";
paths = (
{
closed = 1;
nodes = (
"1250 0 LINE",
"1250 155 LINE",
"1013 155 LINE",
"1244 780 LINE SMOOTH",
"1325 1000 OFFCURVE",
"1354 1119 OFFCURVE",
"1354 1207 CURVE SMOOTH",
"1354 1378 OFFCURVE",
"1258 1482 OFFCURVE",
"1103 1482 CURVE SMOOTH",
"963 1482 OFFCURVE",
"846 1387 OFFCURVE",
"777 1206 CURVE SMOOTH",
"366 155 LINE",
"100 155 LINE",
"100 0 LINE"
);
},
{
closed = 1;
nodes = (
"919 1150 LINE SMOOTH",
"966 1273 OFFCURVE",
"1025 1334 OFFCURVE",
"1094 1334 CURVE SMOOTH",
"1162 1334 OFFCURVE",
"1203 1286 OFFCURVE",
"1203 1201 CURVE SMOOTH",
"1203 1168 OFFCURVE",
"1196 1123 OFFCURVE",
"1181 1066 CURVE SMOOTH",
"1166 1009 OFFCURVE",
"1138 927 OFFCURVE",
"1097 818 CURVE SMOOTH",
"844 155 LINE",
"529 155 LINE"
);
}
);
width = 1524;
}
);
note = g116;
},
{
glyphname = g117;
lastChange = "2016-11-10 17:41:15 +0000";
layers = (
{
layerId = "5B8CD0D6-7305-4246-9307-178461FF2756";
paths = (
{
closed = 1;
nodes = (
"1024 0 LINE",
"1024 155 LINE",
"788 155 LINE",
"1019 780 LINE SMOOTH",
"1092 975 OFFCURVE",
"1128 1117 OFFCURVE",
"1128 1207 CURVE SMOOTH",
"1128 1378 OFFCURVE",
"1032 1482 OFFCURVE",
"877 1482 CURVE SMOOTH",
"734 1482 OFFCURVE",
"621 1386 OFFCURVE",
"552 1206 CURVE SMOOTH",
"140 155 LINE",
"0 155 LINE SMOOTH",
"-45 155 OFFCURVE",
"-81 126 OFFCURVE",
"-81 78 CURVE SMOOTH",
"-81 29 OFFCURVE",
"-45 0 OFFCURVE",
"0 0 CURVE SMOOTH"
);
},
{
closed = 1;
nodes = (
"694 1150 LINE SMOOTH",
"743 1278 OFFCURVE",
"797 1334 OFFCURVE",
"868 1334 CURVE SMOOTH",
"940 1334 OFFCURVE",
"977 1285 OFFCURVE",
"977 1201 CURVE SMOOTH",
"977 1168 OFFCURVE",
"970 1125 OFFCURVE",
"956 1071 CURVE SMOOTH",
"941 1017 OFFCURVE",
"913 933 OFFCURVE",
"870 818 CURVE SMOOTH",
"619 155 LINE",
"304 155 LINE"
);
}
);
width = 1298;
}
);
note = g117;
},
{
glyphname = g118;
lastChange = "2016-11-10 17:41:15 +0000";
layers = (
{
layerId = "5B8CD0D6-7305-4246-9307-178461FF2756";
paths = (
{
closed = 1;
nodes = (
"1320 0 LINE",
"1320 155 LINE",
"788 155 LINE",
"1019 780 LINE SMOOTH",
"1092 975 OFFCURVE",
"1128 1117 OFFCURVE",
"1128 1207 CURVE SMOOTH",
"1128 1378 OFFCURVE",
"1032 1482 OFFCURVE",
"877 1482 CURVE SMOOTH",
"734 1482 OFFCURVE",
"621 1386 OFFCURVE",
"552 1206 CURVE SMOOTH",
"141 155 LINE",
"0 155 LINE SMOOTH",
"-45 155 OFFCURVE",
"-81 126 OFFCURVE",
"-81 78 CURVE SMOOTH",
"-81 29 OFFCURVE",
"-45 0 OFFCURVE",
"0 0 CURVE SMOOTH"
);
},
{
closed = 1;
nodes = (
"694 1150 LINE SMOOTH",
"743 1278 OFFCURVE",
"797 1334 OFFCURVE",
"868 1334 CURVE SMOOTH",
"940 1334 OFFCURVE",
"977 1285 OFFCURVE",
"977 1201 CURVE SMOOTH",
"977 1168 OFFCURVE",
"970 1125 OFFCURVE",
"956 1071 CURVE SMOOTH",
"941 1017 OFFCURVE",
"913 933 OFFCURVE",
"870 818 CURVE SMOOTH",
"619 155 LINE",
"304 155 LINE"
);
}
);
width = 1320;
}
);
note = g118;
},
{
glyphname = g119;
lastChange = "2016-11-10 17:41:15 +0000";
layers = (
{
layerId = "5B8CD0D6-7305-4246-9307-178461FF2756";
paths = (
{
closed = 1;
nodes = (
"1546 0 LINE",
"1546 155 LINE",
"1013 155 LINE",
"1244 780 LINE SMOOTH",
"1325 1000 OFFCURVE",
"1354 1119 OFFCURVE",
"1354 1207 CURVE SMOOTH",
"1354 1378 OFFCURVE",
"1258 1482 OFFCURVE",
"1103 1482 CURVE SMOOTH",
"963 1482 OFFCURVE",
"846 1387 OFFCURVE",
"777 1206 CURVE SMOOTH",
"366 155 LINE",
"100 155 LINE",
"100 0 LINE"
);
},
{
closed = 1;
nodes = (
"919 1150 LINE SMOOTH",
"966 1273 OFFCURVE",
"1025 1334 OFFCURVE",
"1094 1334 CURVE SMOOTH",
"1162 1334 OFFCURVE",
"1203 1286 OFFCURVE",
"1203 1201 CURVE SMOOTH",
"1203 1168 OFFCURVE",
"1196 1123 OFFCURVE",
"1181 1066 CURVE SMOOTH",
"1166 1009 OFFCURVE",
"1138 927 OFFCURVE",
"1097 818 CURVE SMOOTH",
"844 155 LINE",
"529 155 LINE"
);
}
);
width = 1546;
}
);
note = g119;
},
{
glyphname = g120;
lastChange = "2016-11-10 17:41:15 +0000";
layers = (
{
layerId = "5B8CD0D6-7305-4246-9307-178461FF2756";
paths = (
{
closed = 1;
nodes = (
"740 0 LINE",
"740 155 LINE",
"267 155 LINE",
"295 255 OFFCURVE",
"495 497 OFFCURVE",
"616 604 CURVE",
"521 695 LINE",
"322 542 OFFCURVE",
"120 272 OFFCURVE",
"120 128 CURVE SMOOTH",
"120 43 OFFCURVE",
"165 0 OFFCURVE",
"255 0 CURVE SMOOTH"
);
}
);
width = 740;
}
);
note = g120;
},
{
glyphname = g121;
lastChange = "2016-11-10 17:41:15 +0000";
layers = (
{
layerId = "5B8CD0D6-7305-4246-9307-178461FF2756";
paths = (
{
closed = 1;
nodes = (
"640 0 LINE",
"640 155 LINE",
"267 155 LINE",
"295 255 OFFCURVE",
"495 497 OFFCURVE",
"616 604 CURVE",
"521 695 LINE",
"322 542 OFFCURVE",
"120 272 OFFCURVE",
"120 128 CURVE SMOOTH",
"120 43 OFFCURVE",
"165 0 OFFCURVE",
"255 0 CURVE SMOOTH"
);
}
);
width = 640;
}
);
note = g121;
},
{
glyphname = g122;
lastChange = "2016-11-10 17:41:15 +0000";
layers = (
{
layerId = "5B8CD0D6-7305-4246-9307-178461FF2756";
paths = (
{
closed = 1;
nodes = (
"1017 0 LINE",
"1017 155 LINE",
"966 155 LINE",
"960 498 OFFCURVE",
"837 670 OFFCURVE",
"597 670 CURVE SMOOTH",
"513 670 OFFCURVE",
"435 648 OFFCURVE",
"363 604 CURVE SMOOTH",
"218 515 OFFCURVE",
"130 355 OFFCURVE",
"130 191 CURVE SMOOTH",
"130 74 OFFCURVE",
"206 0 OFFCURVE",
"335 0 CURVE SMOOTH"
);
},
{
closed = 1;
nodes = (
"303 155 OFFCURVE",
"279 184 OFFCURVE",
"279 223 CURVE SMOOTH",
"279 267 OFFCURVE",
"293 313 OFFCURVE",
"322 361 CURVE SMOOTH",
"379 456 OFFCURVE",
"479 520 OFFCURVE",
"583 520 CURVE SMOOTH",
"638 520 OFFCURVE",
"680 508 OFFCURVE",
"711 485 CURVE SMOOTH",
"772 438 OFFCURVE",
"804 334 OFFCURVE",
"809 155 CURVE",
"354 155 LINE SMOOTH"
);
}
);
width = 1017;
}
);
note = g122;
},
{
glyphname = g123;
lastChange = "2016-11-10 17:41:15 +0000";
layers = (
{
layerId = "5B8CD0D6-7305-4246-9307-178461FF2756";
paths = (
{
closed = 1;
nodes = (
"581 -11 OFFCURVE",
"975 -3 OFFCURVE",
"1085 0 CURVE SMOOTH",
"1140 1 OFFCURVE",
"1186 5 OFFCURVE",
"1223 12 CURVE SMOOTH",
"1297 24 OFFCURVE",
"1340 47 OFFCURVE",
"1367 88 CURVE",
"1391 29 OFFCURVE",
"1441 0 OFFCURVE",
"1517 0 CURVE SMOOTH",
"1541 0 LINE",
"1541 155 LINE",
"1512 155 OFFCURVE",
"1494 168 OFFCURVE",
"1480 193 CURVE SMOOTH",
"1473 206 OFFCURVE",
"1462 240 OFFCURVE",
"1448 295 CURVE SMOOTH",
"1381 559 OFFCURVE",
"1251 690 OFFCURVE",
"1026 690 CURVE SMOOTH",
"863 690 OFFCURVE",
"593 611 OFFCURVE",
"396 506 CURVE SMOOTH",
"199 401 OFFCURVE",
"120 297 OFFCURVE",
"120 180 CURVE SMOOTH",
"120 59 OFFCURVE",
"199 -11 OFFCURVE",
"328 -11 CURVE SMOOTH"
);
},
{
closed = 1;
nodes = (
"301 145 OFFCURVE",
"272 167 OFFCURVE",
"272 210 CURVE SMOOTH",
"272 251 OFFCURVE",
"315 295 OFFCURVE",
"401 343 CURVE SMOOTH",
"572 438 OFFCURVE",
"883 540 OFFCURVE",
"1004 540 CURVE SMOOTH",
"1061 540 OFFCURVE",
"1110 528 OFFCURVE",
"1153 504 CURVE SMOOTH",
"1238 456 OFFCURVE",
"1299 301 OFFCURVE",
"1299 249 CURVE SMOOTH",
"1299 189 OFFCURVE",
"1228 155 OFFCURVE",
"1101 155 CURVE SMOOTH",
"979 153 LINE",
"358 145 LINE SMOOTH"
);
}
);
width = 1541;
}
);
note = g123;
},
{
glyphname = g124;
lastChange = "2016-11-10 17:41:15 +0000";
layers = (
{
layerId = "5B8CD0D6-7305-4246-9307-178461FF2756";
paths = (
{
closed = 1;
nodes = (
"60 0 LINE SMOOTH",
"211 0 OFFCURVE",
"318 40 OFFCURVE",
"383 121 CURVE",
"432 40 OFFCURVE",
"508 0 OFFCURVE",
"610 0 CURVE SMOOTH",
"703 0 OFFCURVE",
"773 37 OFFCURVE",
"820 110 CURVE",
"852 42 OFFCURVE",
"923 0 OFFCURVE",
"1003 0 CURVE",
"1003 155 LINE",
"946 155 OFFCURVE",
"915 195 OFFCURVE",
"910 276 CURVE",
"911 298 LINE",
"911 323 LINE SMOOTH",
"911 364 OFFCURVE",
"909 396 OFFCURVE",
"904 417 CURVE",
"767 391 LINE",
"769 346 LINE",
"769 219 OFFCURVE",
"714 155 OFFCURVE",
"604 155 CURVE SMOOTH",
"529 155 OFFCURVE",
"472 201 OFFCURVE",
"460 276 CURVE",
"464 302 OFFCURVE",
"466 329 OFFCURVE",
"466 356 CURVE SMOOTH",
"466 379 LINE",
"464 402 LINE",
"326 386 LINE",
"326 219 OFFCURVE",
"249 155 OFFCURVE",
"80 155 CURVE SMOOTH",
"0 155 LINE SMOOTH",
"-44 155 OFFCURVE",
"-81 126 OFFCURVE",
"-81 78 CURVE SMOOTH",
"-81 29 OFFCURVE",
"-44 0 OFFCURVE",
"0 0 CURVE SMOOTH"
);
}
);
width = 1003;
}
);
note = g124;
},
{
glyphname = g125;
lastChange = "2016-11-10 17:41:15 +0000";
layers = (
{
layerId = "5B8CD0D6-7305-4246-9307-178461FF2756";
paths = (
{
closed = 1;
nodes = (
"381 0 LINE SMOOTH",
"544 0 OFFCURVE",
"660 48 OFFCURVE",
"719 121 CURVE",
"768 40 OFFCURVE",
"846 0 OFFCURVE",
"951 0 CURVE SMOOTH",
"1044 0 OFFCURVE",
"1114 37 OFFCURVE",
"1161 110 CURVE",
"1193 42 OFFCURVE",
"1264 0 OFFCURVE",
"1344 0 CURVE",
"1344 155 LINE",
"1287 155 OFFCURVE",
"1256 195 OFFCURVE",
"1251 276 CURVE",
"1252 298 LINE",
"1252 323 LINE SMOOTH",
"1252 364 OFFCURVE",
"1250 396 OFFCURVE",
"1245 417 CURVE",
"1108 391 LINE",
"1110 346 LINE",
"1110 219 OFFCURVE",
"1055 155 OFFCURVE",
"945 155 CURVE SMOOTH",
"870 155 OFFCURVE",
"813 201 OFFCURVE",
"801 276 CURVE",
"805 302 OFFCURVE",
"807 329 OFFCURVE",
"807 356 CURVE SMOOTH",
"807 379 LINE",
"805 402 LINE",
"667 386 LINE",
"660 219 OFFCURVE",
"578 155 OFFCURVE",
"399 155 CURVE SMOOTH",
"100 155 LINE",
"100 0 LINE"
);
}
);
width = 1344;
}
);
note = g125;
},
{
glyphname = g126;
lastChange = "2016-11-10 17:41:15 +0000";
layers = (
{
layerId = "5B8CD0D6-7305-4246-9307-178461FF2756";
paths = (
{
closed = 1;
nodes = (
"1052 0 LINE",
"1052 155 LINE",
"788 155 LINE",
"1019 780 LINE SMOOTH",
"1092 975 OFFCURVE",
"1128 1117 OFFCURVE",
"1128 1207 CURVE SMOOTH",
"1128 1378 OFFCURVE",
"1032 1482 OFFCURVE",
"877 1482 CURVE SMOOTH",
"734 1482 OFFCURVE",
"621 1386 OFFCURVE",
"552 1206 CURVE SMOOTH",
"141 155 LINE",
"0 155 LINE SMOOTH",
"-45 155 OFFCURVE",
"-81 126 OFFCURVE",
"-81 78 CURVE SMOOTH",
"-81 29 OFFCURVE",
"-45 0 OFFCURVE",
"0 0 CURVE SMOOTH"
);
},
{
closed = 1;
nodes = (
"694 1150 LINE SMOOTH",
"743 1278 OFFCURVE",
"797 1334 OFFCURVE",
"868 1334 CURVE SMOOTH",
"940 1334 OFFCURVE",
"977 1285 OFFCURVE",
"977 1201 CURVE SMOOTH",
"977 1168 OFFCURVE",
"970 1125 OFFCURVE",
"956 1071 CURVE SMOOTH",
"941 1017 OFFCURVE",
"913 933 OFFCURVE",
"870 818 CURVE SMOOTH",
"619 155 LINE",
"304 155 LINE"
);
}
);
width = 1052;
}
);
note = g126;
},
{
glyphname = g127;
lastChange = "2016-11-10 17:41:15 +0000";
layers = (
{
layerId = "5B8CD0D6-7305-4246-9307-178461FF2756";
paths = (
{
closed = 1;
nodes = (
"1277 0 LINE",
"1277 155 LINE",
"1013 155 LINE",
"1244 780 LINE SMOOTH",
"1325 1000 OFFCURVE",
"1354 1119 OFFCURVE",
"1354 1207 CURVE SMOOTH",
"1354 1378 OFFCURVE",
"1258 1482 OFFCURVE",
"1103 1482 CURVE SMOOTH",
"963 1482 OFFCURVE",
"846 1387 OFFCURVE",
"777 1206 CURVE SMOOTH",
"366 155 LINE",
"100 155 LINE",
"100 0 LINE"
);
},
{
closed = 1;
nodes = (
"919 1150 LINE SMOOTH",
"966 1273 OFFCURVE",
"1025 1334 OFFCURVE",
"1094 1334 CURVE SMOOTH",
"1162 1334 OFFCURVE",
"1203 1286 OFFCURVE",
"1203 1201 CURVE SMOOTH",
"1203 1168 OFFCURVE",
"1196 1123 OFFCURVE",
"1181 1066 CURVE SMOOTH",
"1166 1009 OFFCURVE",
"1138 927 OFFCURVE",
"1097 818 CURVE SMOOTH",
"844 155 LINE",
"529 155 LINE"
);
}
